<?xml version="1.0" encoding="UTF-8" standalone="no"?>
<!DOCTYPE svg PUBLIC "-//W3C//DTD SVG 1.1//EN"
 "http://www.w3.org/Graphics/SVG/1.1/DTD/svg11.dtd">
<!-- Generated by graphviz version 2.43.0 (0)
 -->
<!-- Title: Tree Pages: 1 -->
<svg width="1891pt" height="328pt"
 viewBox="0.00 0.00 1891.00 328.00" xmlns="http://www.w3.org/2000/svg" xmlns:xlink="http://www.w3.org/1999/xlink">
<g id="graph0" class="graph" transform="scale(1 1) rotate(0) translate(4 324)">
<title>Tree</title>
<polygon fill="white" stroke="transparent" points="-4,4 -4,-324 1887,-324 1887,4 -4,4"/>
<!-- node_1eb0011a_825d_40e0_a2ce_673457a85da0 -->
<g id="node1" class="node">
<title>node_1eb0011a_825d_40e0_a2ce_673457a85da0</title>
<polygon fill="none" stroke="black" points="844,-283.5 844,-319.5 914,-319.5 914,-283.5 844,-283.5"/>
<text text-anchor="middle" x="866" y="-297.8" font-family="Times,serif" font-size="14.00">feat</text>
<polyline fill="none" stroke="black" points="888,-283.5 888,-319.5 "/>
<text text-anchor="middle" x="901" y="-297.8" font-family="Times,serif" font-size="14.00">9</text>
</g>
<!-- node_3f525b6f_cf07_4c5f_bbb0_f61eccf51bc9 -->
<g id="node2" class="node">
<title>node_3f525b6f_cf07_4c5f_bbb0_f61eccf51bc9</title>
<polygon fill="none" stroke="black" points="606,-215.5 606,-251.5 676,-251.5 676,-215.5 606,-215.5"/>
<text text-anchor="middle" x="628" y="-229.8" font-family="Times,serif" font-size="14.00">feat</text>
<polyline fill="none" stroke="black" points="650,-215.5 650,-251.5 "/>
<text text-anchor="middle" x="663" y="-229.8" font-family="Times,serif" font-size="14.00">1</text>
</g>
<!-- node_1eb0011a_825d_40e0_a2ce_673457a85da0&#45;&gt;node_3f525b6f_cf07_4c5f_bbb0_f61eccf51bc9 -->
<g id="edge1" class="edge">
<title>node_1eb0011a_825d_40e0_a2ce_673457a85da0&#45;&gt;node_3f525b6f_cf07_4c5f_bbb0_f61eccf51bc9</title>
<path fill="none" stroke="black" d="M843.88,-290.76C801.96,-279.14 731.78,-259.67 685.94,-246.96"/>
<polygon fill="black" stroke="black" points="686.83,-243.58 676.26,-244.28 684.96,-250.32 686.83,-243.58"/>
<text text-anchor="middle" x="787" y="-263.8" font-family="Times,serif" font-size="14.00">1</text>
</g>
<!-- node_269e8008_1255_4691_a7f6_9331c4b2ea21 -->
<g id="node9" class="node">
<title>node_269e8008_1255_4691_a7f6_9331c4b2ea21</title>
<polygon fill="none" stroke="black" points="1138,-215.5 1138,-251.5 1208,-251.5 1208,-215.5 1138,-215.5"/>
<text text-anchor="middle" x="1160" y="-229.8" font-family="Times,serif" font-size="14.00">feat</text>
<polyline fill="none" stroke="black" points="1182,-215.5 1182,-251.5 "/>
<text text-anchor="middle" x="1195" y="-229.8" font-family="Times,serif" font-size="14.00">8</text>
</g>
<!-- node_1eb0011a_825d_40e0_a2ce_673457a85da0&#45;&gt;node_269e8008_1255_4691_a7f6_9331c4b2ea21 -->
<g id="edge8" class="edge">
<title>node_1eb0011a_825d_40e0_a2ce_673457a85da0&#45;&gt;node_269e8008_1255_4691_a7f6_9331c4b2ea21</title>
<path fill="none" stroke="black" d="M914.17,-292.6C967.51,-280.63 1068.87,-257.88 1127.68,-244.67"/>
<polygon fill="black" stroke="black" points="1128.8,-248.01 1137.79,-242.4 1127.26,-241.18 1128.8,-248.01"/>
<text text-anchor="middle" x="1058" y="-263.8" font-family="Times,serif" font-size="14.00">0</text>
</g>
<!-- node_9c2ec092_2378_4167_a364_1073f2b605fd -->
<g id="node3" class="node">
<title>node_9c2ec092_2378_4167_a364_1073f2b605fd</title>
<polygon fill="none" stroke="black" points="310,-147.5 310,-183.5 380,-183.5 380,-147.5 310,-147.5"/>
<text text-anchor="middle" x="332" y="-161.8" font-family="Times,serif" font-size="14.00">feat</text>
<polyline fill="none" stroke="black" points="354,-147.5 354,-183.5 "/>
<text text-anchor="middle" x="367" y="-161.8" font-family="Times,serif" font-size="14.00">0</text>
</g>
<!-- node_3f525b6f_cf07_4c5f_bbb0_f61eccf51bc9&#45;&gt;node_9c2ec092_2378_4167_a364_1073f2b605fd -->
<g id="edge2" class="edge">
<title>node_3f525b6f_cf07_4c5f_bbb0_f61eccf51bc9&#45;&gt;node_9c2ec092_2378_4167_a364_1073f2b605fd</title>
<path fill="none" stroke="black" d="M605.88,-224.67C552.03,-212.66 449.09,-189.71 389.89,-176.51"/>
<polygon fill="black" stroke="black" points="390.59,-173.08 380.07,-174.32 389.07,-179.91 390.59,-173.08"/>
<text text-anchor="middle" x="525" y="-195.8" font-family="Times,serif" font-size="14.00">1</text>
</g>
<!-- node_4f5d2430_637c_4d62_ae08_d85c6c4d48bb -->
<g id="node6" class="node">
<title>node_4f5d2430_637c_4d62_ae08_d85c6c4d48bb</title>
<polygon fill="none" stroke="black" points="606,-147.5 606,-183.5 676,-183.5 676,-147.5 606,-147.5"/>
<text text-anchor="middle" x="628" y="-161.8" font-family="Times,serif" font-size="14.00">feat</text>
<polyline fill="none" stroke="black" points="650,-147.5 650,-183.5 "/>
<text text-anchor="middle" x="663" y="-161.8" font-family="Times,serif" font-size="14.00">2</text>
</g>
<!-- node_3f525b6f_cf07_4c5f_bbb0_f61eccf51bc9&#45;&gt;node_4f5d2430_637c_4d62_ae08_d85c6c4d48bb -->
<g id="edge5" class="edge">
<title>node_3f525b6f_cf07_4c5f_bbb0_f61eccf51bc9&#45;&gt;node_4f5d2430_637c_4d62_ae08_d85c6c4d48bb</title>
<path fill="none" stroke="black" d="M641,-215.16C641,-208.69 641,-201.18 641,-194.02"/>
<polygon fill="black" stroke="black" points="644.5,-193.95 641,-183.95 637.5,-193.95 644.5,-193.95"/>
<text text-anchor="middle" x="646" y="-195.8" font-family="Times,serif" font-size="14.00">0</text>
</g>
<!-- leaf_3133d36d_5ce5_4075_9cb0_849f03db2a8a -->
<g id="node4" class="node">
<title>leaf_3133d36d_5ce5_4075_9cb0_849f03db2a8a</title>
<polygon fill="none" stroke="black" points="0,-0.5 0,-115.5 216,-115.5 216,-0.5 0,-0.5"/>
<text text-anchor="middle" x="60.5" y="-100.3" font-family="Times,serif" font-size="14.00">class</text>
<polyline fill="none" stroke="black" points="121,-92.5 121,-115.5 "/>
<text text-anchor="middle" x="168.5" y="-100.3" font-family="Times,serif" font-size="14.00">1</text>
<polyline fill="none" stroke="black" points="0,-92.5 216,-92.5 "/>
<text text-anchor="middle" x="60.5" y="-77.3" font-family="Times,serif" font-size="14.00">error</text>
<polyline fill="none" stroke="black" points="121,-69.5 121,-92.5 "/>
<text text-anchor="middle" x="168.5" y="-77.3" font-family="Times,serif" font-size="14.00">9</text>
<polyline fill="none" stroke="black" points="0,-69.5 216,-69.5 "/>
<text text-anchor="middle" x="74.5" y="-54.3" font-family="Times,serif" font-size="14.00">misclassified</text>
<polyline fill="none" stroke="black" points="149,-46.5 149,-69.5 "/>
<text text-anchor="middle" x="182.5" y="-54.3" font-family="Times,serif" font-size="14.00">9</text>
<polyline fill="none" stroke="black" points="0,-46.5 216,-46.5 "/>
<text text-anchor="middle" x="82" y="-31.3" font-family="Times,serif" font-size="14.00">discrimination_train</text>
<polyline fill="none" stroke="black" points="164,-23.5 164,-46.5 "/>
<text text-anchor="middle" x="190" y="-31.3" font-family="Times,serif" font-size="14.00">0.09</text>
<polyline fill="none" stroke="black" points="0,-23.5 216,-23.5 "/>
<text text-anchor="middle" x="79.5" y="-8.3" font-family="Times,serif" font-size="14.00">discrimination_pred</text>
<polyline fill="none" stroke="black" points="159,-0.5 159,-23.5 "/>
<text text-anchor="middle" x="187.5" y="-8.3" font-family="Times,serif" font-size="14.00">0.065</text>
</g>
<!-- node_9c2ec092_2378_4167_a364_1073f2b605fd&#45;&gt;leaf_3133d36d_5ce5_4075_9cb0_849f03db2a8a -->
<g id="edge3" class="edge">
<title>node_9c2ec092_2378_4167_a364_1073f2b605fd&#45;&gt;leaf_3133d36d_5ce5_4075_9cb0_849f03db2a8a</title>
<path fill="none" stroke="black" d="M309.81,-151.02C287.82,-142.43 258.76,-130.78 225.68,-116.24"/>
<polygon fill="black" stroke="black" points="226.8,-112.91 216.24,-112.06 223.97,-119.31 226.8,-112.91"/>
<text text-anchor="middle" x="283" y="-127.8" font-family="Times,serif" font-size="14.00">1</text>
</g>
<!-- leaf_ba001cd4_fa00_4d2e_9730_f37803c35b39 -->
<g id="node5" class="node">
<title>leaf_ba001cd4_fa00_4d2e_9730_f37803c35b39</title>
<polygon fill="none" stroke="black" points="234.5,-0.5 234.5,-115.5 455.5,-115.5 455.5,-0.5 234.5,-0.5"/>
<text text-anchor="middle" x="296" y="-100.3" font-family="Times,serif" font-size="14.00">class</text>
<polyline fill="none" stroke="black" points="357.5,-92.5 357.5,-115.5 "/>
<text text-anchor="middle" x="406.5" y="-100.3" font-family="Times,serif" font-size="14.00">1</text>
<polyline fill="none" stroke="black" points="234.5,-92.5 455.5,-92.5 "/>
<text text-anchor="middle" x="296.5" y="-77.3" font-family="Times,serif" font-size="14.00">error</text>
<polyline fill="none" stroke="black" points="358.5,-69.5 358.5,-92.5 "/>
<text text-anchor="middle" x="407" y="-77.3" font-family="Times,serif" font-size="14.00">2</text>
<polyline fill="none" stroke="black" points="234.5,-69.5 455.5,-69.5 "/>
<text text-anchor="middle" x="310" y="-54.3" font-family="Times,serif" font-size="14.00">misclassified</text>
<polyline fill="none" stroke="black" points="385.5,-46.5 385.5,-69.5 "/>
<text text-anchor="middle" x="420.5" y="-54.3" font-family="Times,serif" font-size="14.00">2</text>
<polyline fill="none" stroke="black" points="234.5,-46.5 455.5,-46.5 "/>
<text text-anchor="middle" x="315.5" y="-31.3" font-family="Times,serif" font-size="14.00">discrimination_train</text>
<polyline fill="none" stroke="black" points="396.5,-23.5 396.5,-46.5 "/>
<text text-anchor="middle" x="426" y="-31.3" font-family="Times,serif" font-size="14.00">0.016</text>
<polyline fill="none" stroke="black" points="234.5,-23.5 455.5,-23.5 "/>
<text text-anchor="middle" x="314" y="-8.3" font-family="Times,serif" font-size="14.00">discrimination_pred</text>
<polyline fill="none" stroke="black" points="393.5,-0.5 393.5,-23.5 "/>
<text text-anchor="middle" x="424.5" y="-8.3" font-family="Times,serif" font-size="14.00">&#45;0.021</text>
</g>
<!-- node_9c2ec092_2378_4167_a364_1073f2b605fd&#45;&gt;leaf_ba001cd4_fa00_4d2e_9730_f37803c35b39 -->
<g id="edge4" class="edge">
<title>node_9c2ec092_2378_4167_a364_1073f2b605fd&#45;&gt;leaf_ba001cd4_fa00_4d2e_9730_f37803c35b39</title>
<path fill="none" stroke="black" d="M345,-147.08C345,-140.91 345,-133.54 345,-125.73"/>
<polygon fill="black" stroke="black" points="348.5,-125.66 345,-115.66 341.5,-125.66 348.5,-125.66"/>
<text text-anchor="middle" x="350" y="-127.8" font-family="Times,serif" font-size="14.00">0</text>
</g>
<!-- leaf_e31b7857_174d_490d_8728_0d7bccbc1ff9 -->
<g id="node7" class="node">
<title>leaf_e31b7857_174d_490d_8728_0d7bccbc1ff9</title>
<polygon fill="none" stroke="black" points="473.5,-0.5 473.5,-115.5 696.5,-115.5 696.5,-0.5 473.5,-0.5"/>
<text text-anchor="middle" x="535.5" y="-100.3" font-family="Times,serif" font-size="14.00">class</text>
<polyline fill="none" stroke="black" points="597.5,-92.5 597.5,-115.5 "/>
<text text-anchor="middle" x="647" y="-100.3" font-family="Times,serif" font-size="14.00">1</text>
<polyline fill="none" stroke="black" points="473.5,-92.5 696.5,-92.5 "/>
<text text-anchor="middle" x="536" y="-77.3" font-family="Times,serif" font-size="14.00">error</text>
<polyline fill="none" stroke="black" points="598.5,-69.5 598.5,-92.5 "/>
<text text-anchor="middle" x="647.5" y="-77.3" font-family="Times,serif" font-size="14.00">2</text>
<polyline fill="none" stroke="black" points="473.5,-69.5 696.5,-69.5 "/>
<text text-anchor="middle" x="549.5" y="-54.3" font-family="Times,serif" font-size="14.00">misclassified</text>
<polyline fill="none" stroke="black" points="625.5,-46.5 625.5,-69.5 "/>
<text text-anchor="middle" x="661" y="-54.3" font-family="Times,serif" font-size="14.00">2</text>
<polyline fill="none" stroke="black" points="473.5,-46.5 696.5,-46.5 "/>
<text text-anchor="middle" x="554" y="-31.3" font-family="Times,serif" font-size="14.00">discrimination_train</text>
<polyline fill="none" stroke="black" points="634.5,-23.5 634.5,-46.5 "/>
<text text-anchor="middle" x="665.5" y="-31.3" font-family="Times,serif" font-size="14.00">&#45;0.003</text>
<polyline fill="none" stroke="black" points="473.5,-23.5 696.5,-23.5 "/>
<text text-anchor="middle" x="555.5" y="-8.3" font-family="Times,serif" font-size="14.00">discrimination_pred</text>
<polyline fill="none" stroke="black" points="637.5,-0.5 637.5,-23.5 "/>
<text text-anchor="middle" x="667" y="-8.3" font-family="Times,serif" font-size="14.00">&#45;0.03</text>
</g>
<!-- node_4f5d2430_637c_4d62_ae08_d85c6c4d48bb&#45;&gt;leaf_e31b7857_174d_490d_8728_0d7bccbc1ff9 -->
<g id="edge6" class="edge">
<title>node_4f5d2430_637c_4d62_ae08_d85c6c4d48bb&#45;&gt;leaf_e31b7857_174d_490d_8728_0d7bccbc1ff9</title>
<path fill="none" stroke="black" d="M631.75,-147.08C628.33,-140.63 624.22,-132.88 619.87,-124.69"/>
<polygon fill="black" stroke="black" points="622.86,-122.86 615.08,-115.66 616.67,-126.14 622.86,-122.86"/>
<text text-anchor="middle" x="631" y="-127.8" font-family="Times,serif" font-size="14.00">1</text>
</g>
<!-- leaf_8ce93090_e2d8_4ebf_baa3_b078fac3f931 -->
<g id="node8" class="node">
<title>leaf_8ce93090_e2d8_4ebf_baa3_b078fac3f931</title>
<polygon fill="none" stroke="black" points="715,-0.5 715,-115.5 933,-115.5 933,-0.5 715,-0.5"/>
<text text-anchor="middle" x="776" y="-100.3" font-family="Times,serif" font-size="14.00">class</text>
<polyline fill="none" stroke="black" points="837,-92.5 837,-115.5 "/>
<text text-anchor="middle" x="885" y="-100.3" font-family="Times,serif" font-size="14.00">0</text>
<polyline fill="none" stroke="black" points="715,-92.5 933,-92.5 "/>
<text text-anchor="middle" x="776" y="-77.3" font-family="Times,serif" font-size="14.00">error</text>
<polyline fill="none" stroke="black" points="837,-69.5 837,-92.5 "/>
<text text-anchor="middle" x="885" y="-77.3" font-family="Times,serif" font-size="14.00">1</text>
<polyline fill="none" stroke="black" points="715,-69.5 933,-69.5 "/>
<text text-anchor="middle" x="790" y="-54.3" font-family="Times,serif" font-size="14.00">misclassified</text>
<polyline fill="none" stroke="black" points="865,-46.5 865,-69.5 "/>
<text text-anchor="middle" x="899" y="-54.3" font-family="Times,serif" font-size="14.00">1</text>
<polyline fill="none" stroke="black" points="715,-46.5 933,-46.5 "/>
<text text-anchor="middle" x="795.5" y="-31.3" font-family="Times,serif" font-size="14.00">discrimination_train</text>
<polyline fill="none" stroke="black" points="876,-23.5 876,-46.5 "/>
<text text-anchor="middle" x="904.5" y="-31.3" font-family="Times,serif" font-size="14.00">0.025</text>
<polyline fill="none" stroke="black" points="715,-23.5 933,-23.5 "/>
<text text-anchor="middle" x="802.5" y="-8.3" font-family="Times,serif" font-size="14.00">discrimination_pred</text>
<polyline fill="none" stroke="black" points="890,-0.5 890,-23.5 "/>
<text text-anchor="middle" x="911.5" y="-8.3" font-family="Times,serif" font-size="14.00">0</text>
</g>
<!-- node_4f5d2430_637c_4d62_ae08_d85c6c4d48bb&#45;&gt;leaf_8ce93090_e2d8_4ebf_baa3_b078fac3f931 -->
<g id="edge7" class="edge">
<title>node_4f5d2430_637c_4d62_ae08_d85c6c4d48bb&#45;&gt;leaf_8ce93090_e2d8_4ebf_baa3_b078fac3f931</title>
<path fill="none" stroke="black" d="M670.81,-147.31C683.83,-139.81 699.98,-130.5 716.85,-120.77"/>
<polygon fill="black" stroke="black" points="718.82,-123.68 725.73,-115.65 715.32,-117.61 718.82,-123.68"/>
<text text-anchor="middle" x="716" y="-127.8" font-family="Times,serif" font-size="14.00">0</text>
</g>
<!-- node_f7b20bc3_3c1b_4137_b662_3b48c5cb59b6 -->
<g id="node10" class="node">
<title>node_f7b20bc3_3c1b_4137_b662_3b48c5cb59b6</title>
<polygon fill="none" stroke="black" points="1138,-147.5 1138,-183.5 1208,-183.5 1208,-147.5 1138,-147.5"/>
<text text-anchor="middle" x="1160" y="-161.8" font-family="Times,serif" font-size="14.00">feat</text>
<polyline fill="none" stroke="black" points="1182,-147.5 1182,-183.5 "/>
<text text-anchor="middle" x="1195" y="-161.8" font-family="Times,serif" font-size="14.00">4</text>
</g>
<!-- node_269e8008_1255_4691_a7f6_9331c4b2ea21&#45;&gt;node_f7b20bc3_3c1b_4137_b662_3b48c5cb59b6 -->
<g id="edge9" class="edge">
<title>node_269e8008_1255_4691_a7f6_9331c4b2ea21&#45;&gt;node_f7b20bc3_3c1b_4137_b662_3b48c5cb59b6</title>
<path fill="none" stroke="black" d="M1173,-215.16C1173,-208.69 1173,-201.18 1173,-194.02"/>
<polygon fill="black" stroke="black" points="1176.5,-193.95 1173,-183.95 1169.5,-193.95 1176.5,-193.95"/>
<text text-anchor="middle" x="1178" y="-195.8" font-family="Times,serif" font-size="14.00">1</text>
</g>
<!-- node_f7040293_995f_4fa3_934b_7928a1cdb382 -->
<g id="node13" class="node">
<title>node_f7040293_995f_4fa3_934b_7928a1cdb382</title>
<polygon fill="none" stroke="black" points="1498.5,-147.5 1498.5,-183.5 1577.5,-183.5 1577.5,-147.5 1498.5,-147.5"/>
<text text-anchor="middle" x="1520.5" y="-161.8" font-family="Times,serif" font-size="14.00">feat</text>
<polyline fill="none" stroke="black" points="1542.5,-147.5 1542.5,-183.5 "/>
<text text-anchor="middle" x="1560" y="-161.8" font-family="Times,serif" font-size="14.00">10</text>
</g>
<!-- node_269e8008_1255_4691_a7f6_9331c4b2ea21&#45;&gt;node_f7040293_995f_4fa3_934b_7928a1cdb382 -->
<g id="edge12" class="edge">
<title>node_269e8008_1255_4691_a7f6_9331c4b2ea21&#45;&gt;node_f7040293_995f_4fa3_934b_7928a1cdb382</title>
<path fill="none" stroke="black" d="M1208.33,-226.11C1273.6,-214.31 1413.25,-189.06 1488.13,-175.52"/>
<polygon fill="black" stroke="black" points="1489.03,-178.91 1498.25,-173.69 1487.79,-172.02 1489.03,-178.91"/>
<text text-anchor="middle" x="1394" y="-195.8" font-family="Times,serif" font-size="14.00">0</text>
</g>
<!-- leaf_cc12de24_607f_43fe_8863_f48b9a05e971 -->
<g id="node11" class="node">
<title>leaf_cc12de24_607f_43fe_8863_f48b9a05e971</title>
<polygon fill="none" stroke="black" points="951.5,-0.5 951.5,-115.5 1174.5,-115.5 1174.5,-0.5 951.5,-0.5"/>
<text text-anchor="middle" x="1013.5" y="-100.3" font-family="Times,serif" font-size="14.00">class</text>
<polyline fill="none" stroke="black" points="1075.5,-92.5 1075.5,-115.5 "/>
<text text-anchor="middle" x="1125" y="-100.3" font-family="Times,serif" font-size="14.00">1</text>
<polyline fill="none" stroke="black" points="951.5,-92.5 1174.5,-92.5 "/>
<text text-anchor="middle" x="1014" y="-77.3" font-family="Times,serif" font-size="14.00">error</text>
<polyline fill="none" stroke="black" points="1076.5,-69.5 1076.5,-92.5 "/>
<text text-anchor="middle" x="1125.5" y="-77.3" font-family="Times,serif" font-size="14.00">1</text>
<polyline fill="none" stroke="black" points="951.5,-69.5 1174.5,-69.5 "/>
<text text-anchor="middle" x="1027.5" y="-54.3" font-family="Times,serif" font-size="14.00">misclassified</text>
<polyline fill="none" stroke="black" points="1103.5,-46.5 1103.5,-69.5 "/>
<text text-anchor="middle" x="1139" y="-54.3" font-family="Times,serif" font-size="14.00">1</text>
<polyline fill="none" stroke="black" points="951.5,-46.5 1174.5,-46.5 "/>
<text text-anchor="middle" x="1032" y="-31.3" font-family="Times,serif" font-size="14.00">discrimination_train</text>
<polyline fill="none" stroke="black" points="1112.5,-23.5 1112.5,-46.5 "/>
<text text-anchor="middle" x="1143.5" y="-31.3" font-family="Times,serif" font-size="14.00">&#45;0.015</text>
<polyline fill="none" stroke="black" points="951.5,-23.5 1174.5,-23.5 "/>
<text text-anchor="middle" x="1031.5" y="-8.3" font-family="Times,serif" font-size="14.00">discrimination_pred</text>
<polyline fill="none" stroke="black" points="1111.5,-0.5 1111.5,-23.5 "/>
<text text-anchor="middle" x="1143" y="-8.3" font-family="Times,serif" font-size="14.00">&#45;0.007</text>
</g>
<!-- node_f7b20bc3_3c1b_4137_b662_3b48c5cb59b6&#45;&gt;leaf_cc12de24_607f_43fe_8863_f48b9a05e971 -->
<g id="edge10" class="edge">
<title>node_f7b20bc3_3c1b_4137_b662_3b48c5cb59b6&#45;&gt;leaf_cc12de24_607f_43fe_8863_f48b9a05e971</title>
<path fill="none" stroke="black" d="M1154.84,-147.08C1147.54,-140.08 1138.65,-131.55 1129.3,-122.59"/>
<polygon fill="black" stroke="black" points="1131.72,-120.06 1122.08,-115.66 1126.87,-125.11 1131.72,-120.06"/>
<text text-anchor="middle" x="1149" y="-127.8" font-family="Times,serif" font-size="14.00">1</text>
</g>
<!-- leaf_7cf92265_08be_4f7c_bba4_c7dc59d89d90 -->
<g id="node12" class="node">
<title>leaf_7cf92265_08be_4f7c_bba4_c7dc59d89d90</title>
<polygon fill="none" stroke="black" points="1193,-0.5 1193,-115.5 1411,-115.5 1411,-0.5 1193,-0.5"/>
<text text-anchor="middle" x="1254" y="-100.3" font-family="Times,serif" font-size="14.00">class</text>
<polyline fill="none" stroke="black" points="1315,-92.5 1315,-115.5 "/>
<text text-anchor="middle" x="1363" y="-100.3" font-family="Times,serif" font-size="14.00">0</text>
<polyline fill="none" stroke="black" points="1193,-92.5 1411,-92.5 "/>
<text text-anchor="middle" x="1254" y="-77.3" font-family="Times,serif" font-size="14.00">error</text>
<polyline fill="none" stroke="black" points="1315,-69.5 1315,-92.5 "/>
<text text-anchor="middle" x="1363" y="-77.3" font-family="Times,serif" font-size="14.00">1</text>
<polyline fill="none" stroke="black" points="1193,-69.5 1411,-69.5 "/>
<text text-anchor="middle" x="1268" y="-54.3" font-family="Times,serif" font-size="14.00">misclassified</text>
<polyline fill="none" stroke="black" points="1343,-46.5 1343,-69.5 "/>
<text text-anchor="middle" x="1377" y="-54.3" font-family="Times,serif" font-size="14.00">1</text>
<polyline fill="none" stroke="black" points="1193,-46.5 1411,-46.5 "/>
<text text-anchor="middle" x="1273.5" y="-31.3" font-family="Times,serif" font-size="14.00">discrimination_train</text>
<polyline fill="none" stroke="black" points="1354,-23.5 1354,-46.5 "/>
<text text-anchor="middle" x="1382.5" y="-31.3" font-family="Times,serif" font-size="14.00">0.008</text>
<polyline fill="none" stroke="black" points="1193,-23.5 1411,-23.5 "/>
<text text-anchor="middle" x="1280.5" y="-8.3" font-family="Times,serif" font-size="14.00">discrimination_pred</text>
<polyline fill="none" stroke="black" points="1368,-0.5 1368,-23.5 "/>
<text text-anchor="middle" x="1389.5" y="-8.3" font-family="Times,serif" font-size="14.00">0</text>
</g>
<!-- node_f7b20bc3_3c1b_4137_b662_3b48c5cb59b6&#45;&gt;leaf_7cf92265_08be_4f7c_bba4_c7dc59d89d90 -->
<g id="edge11" class="edge">
<title>node_f7b20bc3_3c1b_4137_b662_3b48c5cb59b6&#45;&gt;leaf_7cf92265_08be_4f7c_bba4_c7dc59d89d90</title>
<path fill="none" stroke="black" d="M1194.01,-147.31C1202.77,-140.15 1213.53,-131.35 1224.84,-122.11"/>
<polygon fill="black" stroke="black" points="1227.2,-124.69 1232.73,-115.65 1222.77,-119.27 1227.2,-124.69"/>
<text text-anchor="middle" x="1228" y="-127.8" font-family="Times,serif" font-size="14.00">0</text>
</g>
<!-- leaf_ad7080ed_63a7_4a98_aef8_f7a6bd18581b -->
<g id="node14" class="node">
<title>leaf_ad7080ed_63a7_4a98_aef8_f7a6bd18581b</title>
<polygon fill="none" stroke="black" points="1429,-0.5 1429,-115.5 1647,-115.5 1647,-0.5 1429,-0.5"/>
<text text-anchor="middle" x="1490" y="-100.3" font-family="Times,serif" font-size="14.00">class</text>
<polyline fill="none" stroke="black" points="1551,-92.5 1551,-115.5 "/>
<text text-anchor="middle" x="1599" y="-100.3" font-family="Times,serif" font-size="14.00">0</text>
<polyline fill="none" stroke="black" points="1429,-92.5 1647,-92.5 "/>
<text text-anchor="middle" x="1490" y="-77.3" font-family="Times,serif" font-size="14.00">error</text>
<polyline fill="none" stroke="black" points="1551,-69.5 1551,-92.5 "/>
<text text-anchor="middle" x="1599" y="-77.3" font-family="Times,serif" font-size="14.00">0</text>
<polyline fill="none" stroke="black" points="1429,-69.5 1647,-69.5 "/>
<text text-anchor="middle" x="1504" y="-54.3" font-family="Times,serif" font-size="14.00">misclassified</text>
<polyline fill="none" stroke="black" points="1579,-46.5 1579,-69.5 "/>
<text text-anchor="middle" x="1613" y="-54.3" font-family="Times,serif" font-size="14.00">0</text>
<polyline fill="none" stroke="black" points="1429,-46.5 1647,-46.5 "/>
<text text-anchor="middle" x="1509.5" y="-31.3" font-family="Times,serif" font-size="14.00">discrimination_train</text>
<polyline fill="none" stroke="black" points="1590,-23.5 1590,-46.5 "/>
<text text-anchor="middle" x="1618.5" y="-31.3" font-family="Times,serif" font-size="14.00">0.207</text>
<polyline fill="none" stroke="black" points="1429,-23.5 1647,-23.5 "/>
<text text-anchor="middle" x="1516.5" y="-8.3" font-family="Times,serif" font-size="14.00">discrimination_pred</text>
<polyline fill="none" stroke="black" points="1604,-0.5 1604,-23.5 "/>
<text text-anchor="middle" x="1625.5" y="-8.3" font-family="Times,serif" font-size="14.00">0</text>
</g>
<!-- node_f7040293_995f_4fa3_934b_7928a1cdb382&#45;&gt;leaf_ad7080ed_63a7_4a98_aef8_f7a6bd18581b -->
<g id="edge13" class="edge">
<title>node_f7040293_995f_4fa3_934b_7928a1cdb382&#45;&gt;leaf_ad7080ed_63a7_4a98_aef8_f7a6bd18581b</title>
<path fill="none" stroke="black" d="M1538,-147.08C1538,-140.91 1538,-133.54 1538,-125.73"/>
<polygon fill="black" stroke="black" points="1541.5,-125.66 1538,-115.66 1534.5,-125.66 1541.5,-125.66"/>
<text text-anchor="middle" x="1543" y="-127.8" font-family="Times,serif" font-size="14.00">1</text>
</g>
<!-- leaf_1b1ee254_9956_430c_8dfe_67981fe73d20 -->
<g id="node15" class="node">
<title>leaf_1b1ee254_9956_430c_8dfe_67981fe73d20</title>
<polygon fill="none" stroke="black" points="1665,-0.5 1665,-115.5 1883,-115.5 1883,-0.5 1665,-0.5"/>
<text text-anchor="middle" x="1726" y="-100.3" font-family="Times,serif" font-size="14.00">class</text>
<polyline fill="none" stroke="black" points="1787,-92.5 1787,-115.5 "/>
<text text-anchor="middle" x="1835" y="-100.3" font-family="Times,serif" font-size="14.00">0</text>
<polyline fill="none" stroke="black" points="1665,-92.5 1883,-92.5 "/>
<text text-anchor="middle" x="1726" y="-77.3" font-family="Times,serif" font-size="14.00">error</text>
<polyline fill="none" stroke="black" points="1787,-69.5 1787,-92.5 "/>
<text text-anchor="middle" x="1835" y="-77.3" font-family="Times,serif" font-size="14.00">4</text>
<polyline fill="none" stroke="black" points="1665,-69.5 1883,-69.5 "/>
<text text-anchor="middle" x="1740" y="-54.3" font-family="Times,serif" font-size="14.00">misclassified</text>
<polyline fill="none" stroke="black" points="1815,-46.5 1815,-69.5 "/>
<text text-anchor="middle" x="1849" y="-54.3" font-family="Times,serif" font-size="14.00">4</text>
<polyline fill="none" stroke="black" points="1665,-46.5 1883,-46.5 "/>
<text text-anchor="middle" x="1745.5" y="-31.3" font-family="Times,serif" font-size="14.00">discrimination_train</text>
<polyline fill="none" stroke="black" points="1826,-23.5 1826,-46.5 "/>
<text text-anchor="middle" x="1854.5" y="-31.3" font-family="Times,serif" font-size="14.00">0.033</text>
<polyline fill="none" stroke="black" points="1665,-23.5 1883,-23.5 "/>
<text text-anchor="middle" x="1752.5" y="-8.3" font-family="Times,serif" font-size="14.00">discrimination_pred</text>
<polyline fill="none" stroke="black" points="1840,-0.5 1840,-23.5 "/>
<text text-anchor="middle" x="1861.5" y="-8.3" font-family="Times,serif" font-size="14.00">0</text>
</g>
<!-- node_f7040293_995f_4fa3_934b_7928a1cdb382&#45;&gt;leaf_1b1ee254_9956_430c_8dfe_67981fe73d20 -->
<g id="edge14" class="edge">
<title>node_f7040293_995f_4fa3_934b_7928a1cdb382&#45;&gt;leaf_1b1ee254_9956_430c_8dfe_67981fe73d20</title>
<path fill="none" stroke="black" d="M1577.58,-148.92C1598.54,-140.51 1624.86,-129.72 1655.59,-116.13"/>
<polygon fill="black" stroke="black" points="1657.1,-119.29 1664.82,-112.03 1654.26,-112.89 1657.1,-119.29"/>
<text text-anchor="middle" x="1642" y="-127.8" font-family="Times,serif" font-size="14.00">0</text>
</g>
</g>
</svg>
