<?xml version="1.0" encoding="UTF-8" standalone="no"?>
<!DOCTYPE svg PUBLIC "-//W3C//DTD SVG 1.1//EN"
 "http://www.w3.org/Graphics/SVG/1.1/DTD/svg11.dtd">
<!-- Generated by graphviz version 2.43.0 (0)
 -->
<!-- Title: Tree Pages: 1 -->
<svg width="940pt" height="260pt"
 viewBox="0.00 0.00 939.50 260.00" xmlns="http://www.w3.org/2000/svg" xmlns:xlink="http://www.w3.org/1999/xlink">
<g id="graph0" class="graph" transform="scale(1 1) rotate(0) translate(4 256)">
<title>Tree</title>
<polygon fill="white" stroke="transparent" points="-4,4 -4,-256 935.5,-256 935.5,4 -4,4"/>
<!-- node_80cab7c5_7651_4f82_ad7f_84fa673dab59 -->
<g id="node1" class="node">
<title>node_80cab7c5_7651_4f82_ad7f_84fa673dab59</title>
<polygon fill="none" stroke="black" points="432.5,-215.5 432.5,-251.5 502.5,-251.5 502.5,-215.5 432.5,-215.5"/>
<text text-anchor="middle" x="454.5" y="-229.8" font-family="Times,serif" font-size="14.00">feat</text>
<polyline fill="none" stroke="black" points="476.5,-215.5 476.5,-251.5 "/>
<text text-anchor="middle" x="489.5" y="-229.8" font-family="Times,serif" font-size="14.00">9</text>
</g>
<!-- node_b0735671_0f84_406d_9f60_42f296d8a1b9 -->
<g id="node2" class="node">
<title>node_b0735671_0f84_406d_9f60_42f296d8a1b9</title>
<polygon fill="none" stroke="black" points="315.5,-147.5 315.5,-183.5 385.5,-183.5 385.5,-147.5 315.5,-147.5"/>
<text text-anchor="middle" x="337.5" y="-161.8" font-family="Times,serif" font-size="14.00">feat</text>
<polyline fill="none" stroke="black" points="359.5,-147.5 359.5,-183.5 "/>
<text text-anchor="middle" x="372.5" y="-161.8" font-family="Times,serif" font-size="14.00">2</text>
</g>
<!-- node_80cab7c5_7651_4f82_ad7f_84fa673dab59&#45;&gt;node_b0735671_0f84_406d_9f60_42f296d8a1b9 -->
<g id="edge1" class="edge">
<title>node_80cab7c5_7651_4f82_ad7f_84fa673dab59&#45;&gt;node_b0735671_0f84_406d_9f60_42f296d8a1b9</title>
<path fill="none" stroke="black" d="M437.07,-215.33C422.58,-207.16 405.08,-197.29 389.61,-188.56"/>
<polygon fill="black" stroke="black" points="391.21,-185.45 380.78,-183.58 387.77,-191.54 391.21,-185.45"/>
<text text-anchor="middle" x="424.5" y="-195.8" font-family="Times,serif" font-size="14.00">1</text>
</g>
<!-- node_aa2c9b8f_18b2_45b4_b606_fc7a42e13238 -->
<g id="node5" class="node">
<title>node_aa2c9b8f_18b2_45b4_b606_fc7a42e13238</title>
<polygon fill="none" stroke="black" points="547,-147.5 547,-183.5 626,-183.5 626,-147.5 547,-147.5"/>
<text text-anchor="middle" x="569" y="-161.8" font-family="Times,serif" font-size="14.00">feat</text>
<polyline fill="none" stroke="black" points="591,-147.5 591,-183.5 "/>
<text text-anchor="middle" x="608.5" y="-161.8" font-family="Times,serif" font-size="14.00">10</text>
</g>
<!-- node_80cab7c5_7651_4f82_ad7f_84fa673dab59&#45;&gt;node_aa2c9b8f_18b2_45b4_b606_fc7a42e13238 -->
<g id="edge4" class="edge">
<title>node_80cab7c5_7651_4f82_ad7f_84fa673dab59&#45;&gt;node_aa2c9b8f_18b2_45b4_b606_fc7a42e13238</title>
<path fill="none" stroke="black" d="M498.46,-215.33C513.19,-207.16 530.99,-197.29 546.72,-188.56"/>
<polygon fill="black" stroke="black" points="548.65,-191.49 555.7,-183.58 545.26,-185.37 548.65,-191.49"/>
<text text-anchor="middle" x="543.5" y="-195.8" font-family="Times,serif" font-size="14.00">0</text>
</g>
<!-- leaf_697c29d6_1ba6_4eaa_ad10_808d9bce0362 -->
<g id="node3" class="node">
<title>leaf_697c29d6_1ba6_4eaa_ad10_808d9bce0362</title>
<polygon fill="none" stroke="black" points="0,-0.5 0,-115.5 223,-115.5 223,-0.5 0,-0.5"/>
<text text-anchor="middle" x="62" y="-100.3" font-family="Times,serif" font-size="14.00">class</text>
<polyline fill="none" stroke="black" points="124,-92.5 124,-115.5 "/>
<text text-anchor="middle" x="173.5" y="-100.3" font-family="Times,serif" font-size="14.00">1</text>
<polyline fill="none" stroke="black" points="0,-92.5 223,-92.5 "/>
<text text-anchor="middle" x="60" y="-77.3" font-family="Times,serif" font-size="14.00">error</text>
<polyline fill="none" stroke="black" points="120,-69.5 120,-92.5 "/>
<text text-anchor="middle" x="171.5" y="-77.3" font-family="Times,serif" font-size="14.00">15</text>
<polyline fill="none" stroke="black" points="0,-69.5 223,-69.5 "/>
<text text-anchor="middle" x="74" y="-54.3" font-family="Times,serif" font-size="14.00">misclassified</text>
<polyline fill="none" stroke="black" points="148,-46.5 148,-69.5 "/>
<text text-anchor="middle" x="185.5" y="-54.3" font-family="Times,serif" font-size="14.00">15</text>
<polyline fill="none" stroke="black" points="0,-46.5 223,-46.5 "/>
<text text-anchor="middle" x="80.5" y="-31.3" font-family="Times,serif" font-size="14.00">discrimination_train</text>
<polyline fill="none" stroke="black" points="161,-23.5 161,-46.5 "/>
<text text-anchor="middle" x="192" y="-31.3" font-family="Times,serif" font-size="14.00">&#45;0.035</text>
<polyline fill="none" stroke="black" points="0,-23.5 223,-23.5 "/>
<text text-anchor="middle" x="80" y="-8.3" font-family="Times,serif" font-size="14.00">discrimination_pred</text>
<polyline fill="none" stroke="black" points="160,-0.5 160,-23.5 "/>
<text text-anchor="middle" x="191.5" y="-8.3" font-family="Times,serif" font-size="14.00">&#45;0.135</text>
</g>
<!-- node_b0735671_0f84_406d_9f60_42f296d8a1b9&#45;&gt;leaf_697c29d6_1ba6_4eaa_ad10_808d9bce0362 -->
<g id="edge2" class="edge">
<title>node_b0735671_0f84_406d_9f60_42f296d8a1b9&#45;&gt;leaf_697c29d6_1ba6_4eaa_ad10_808d9bce0362</title>
<path fill="none" stroke="black" d="M315.45,-150.63C291.88,-141.17 260.17,-128.19 232.5,-116 232.4,-115.96 232.31,-115.92 232.21,-115.87"/>
<polygon fill="black" stroke="black" points="233.71,-112.71 223.15,-111.85 230.87,-119.11 233.71,-112.71"/>
<text text-anchor="middle" x="289.5" y="-127.8" font-family="Times,serif" font-size="14.00">1</text>
</g>
<!-- leaf_6f5ecf88_c67b_4cbd_9937_4020ed696ddc -->
<g id="node4" class="node">
<title>leaf_6f5ecf88_c67b_4cbd_9937_4020ed696ddc</title>
<polygon fill="none" stroke="black" points="241.5,-0.5 241.5,-115.5 459.5,-115.5 459.5,-0.5 241.5,-0.5"/>
<text text-anchor="middle" x="302.5" y="-100.3" font-family="Times,serif" font-size="14.00">class</text>
<polyline fill="none" stroke="black" points="363.5,-92.5 363.5,-115.5 "/>
<text text-anchor="middle" x="411.5" y="-100.3" font-family="Times,serif" font-size="14.00">1</text>
<polyline fill="none" stroke="black" points="241.5,-92.5 459.5,-92.5 "/>
<text text-anchor="middle" x="302.5" y="-77.3" font-family="Times,serif" font-size="14.00">error</text>
<polyline fill="none" stroke="black" points="363.5,-69.5 363.5,-92.5 "/>
<text text-anchor="middle" x="411.5" y="-77.3" font-family="Times,serif" font-size="14.00">3</text>
<polyline fill="none" stroke="black" points="241.5,-69.5 459.5,-69.5 "/>
<text text-anchor="middle" x="316.5" y="-54.3" font-family="Times,serif" font-size="14.00">misclassified</text>
<polyline fill="none" stroke="black" points="391.5,-46.5 391.5,-69.5 "/>
<text text-anchor="middle" x="425.5" y="-54.3" font-family="Times,serif" font-size="14.00">3</text>
<polyline fill="none" stroke="black" points="241.5,-46.5 459.5,-46.5 "/>
<text text-anchor="middle" x="322" y="-31.3" font-family="Times,serif" font-size="14.00">discrimination_train</text>
<polyline fill="none" stroke="black" points="402.5,-23.5 402.5,-46.5 "/>
<text text-anchor="middle" x="431" y="-31.3" font-family="Times,serif" font-size="14.00">0.126</text>
<polyline fill="none" stroke="black" points="241.5,-23.5 459.5,-23.5 "/>
<text text-anchor="middle" x="321.5" y="-8.3" font-family="Times,serif" font-size="14.00">discrimination_pred</text>
<polyline fill="none" stroke="black" points="401.5,-0.5 401.5,-23.5 "/>
<text text-anchor="middle" x="430.5" y="-8.3" font-family="Times,serif" font-size="14.00">0.131</text>
</g>
<!-- node_b0735671_0f84_406d_9f60_42f296d8a1b9&#45;&gt;leaf_6f5ecf88_c67b_4cbd_9937_4020ed696ddc -->
<g id="edge3" class="edge">
<title>node_b0735671_0f84_406d_9f60_42f296d8a1b9&#45;&gt;leaf_6f5ecf88_c67b_4cbd_9937_4020ed696ddc</title>
<path fill="none" stroke="black" d="M350.5,-147.08C350.5,-140.91 350.5,-133.54 350.5,-125.73"/>
<polygon fill="black" stroke="black" points="354,-125.66 350.5,-115.66 347,-125.66 354,-125.66"/>
<text text-anchor="middle" x="355.5" y="-127.8" font-family="Times,serif" font-size="14.00">0</text>
</g>
<!-- leaf_127cabdb_bd74_408c_9bd3_31d1e4a42571 -->
<g id="node6" class="node">
<title>leaf_127cabdb_bd74_408c_9bd3_31d1e4a42571</title>
<polygon fill="none" stroke="black" points="477.5,-0.5 477.5,-115.5 695.5,-115.5 695.5,-0.5 477.5,-0.5"/>
<text text-anchor="middle" x="538.5" y="-100.3" font-family="Times,serif" font-size="14.00">class</text>
<polyline fill="none" stroke="black" points="599.5,-92.5 599.5,-115.5 "/>
<text text-anchor="middle" x="647.5" y="-100.3" font-family="Times,serif" font-size="14.00">0</text>
<polyline fill="none" stroke="black" points="477.5,-92.5 695.5,-92.5 "/>
<text text-anchor="middle" x="538.5" y="-77.3" font-family="Times,serif" font-size="14.00">error</text>
<polyline fill="none" stroke="black" points="599.5,-69.5 599.5,-92.5 "/>
<text text-anchor="middle" x="647.5" y="-77.3" font-family="Times,serif" font-size="14.00">0</text>
<polyline fill="none" stroke="black" points="477.5,-69.5 695.5,-69.5 "/>
<text text-anchor="middle" x="552.5" y="-54.3" font-family="Times,serif" font-size="14.00">misclassified</text>
<polyline fill="none" stroke="black" points="627.5,-46.5 627.5,-69.5 "/>
<text text-anchor="middle" x="661.5" y="-54.3" font-family="Times,serif" font-size="14.00">0</text>
<polyline fill="none" stroke="black" points="477.5,-46.5 695.5,-46.5 "/>
<text text-anchor="middle" x="558" y="-31.3" font-family="Times,serif" font-size="14.00">discrimination_train</text>
<polyline fill="none" stroke="black" points="638.5,-23.5 638.5,-46.5 "/>
<text text-anchor="middle" x="667" y="-31.3" font-family="Times,serif" font-size="14.00">0.187</text>
<polyline fill="none" stroke="black" points="477.5,-23.5 695.5,-23.5 "/>
<text text-anchor="middle" x="565" y="-8.3" font-family="Times,serif" font-size="14.00">discrimination_pred</text>
<polyline fill="none" stroke="black" points="652.5,-0.5 652.5,-23.5 "/>
<text text-anchor="middle" x="674" y="-8.3" font-family="Times,serif" font-size="14.00">0</text>
</g>
<!-- node_aa2c9b8f_18b2_45b4_b606_fc7a42e13238&#45;&gt;leaf_127cabdb_bd74_408c_9bd3_31d1e4a42571 -->
<g id="edge5" class="edge">
<title>node_aa2c9b8f_18b2_45b4_b606_fc7a42e13238&#45;&gt;leaf_127cabdb_bd74_408c_9bd3_31d1e4a42571</title>
<path fill="none" stroke="black" d="M586.5,-147.08C586.5,-140.91 586.5,-133.54 586.5,-125.73"/>
<polygon fill="black" stroke="black" points="590,-125.66 586.5,-115.66 583,-125.66 590,-125.66"/>
<text text-anchor="middle" x="591.5" y="-127.8" font-family="Times,serif" font-size="14.00">1</text>
</g>
<!-- leaf_baa02257_262f_4af3_b6ce_8d611755f627 -->
<g id="node7" class="node">
<title>leaf_baa02257_262f_4af3_b6ce_8d611755f627</title>
<polygon fill="none" stroke="black" points="713.5,-0.5 713.5,-115.5 931.5,-115.5 931.5,-0.5 713.5,-0.5"/>
<text text-anchor="middle" x="774.5" y="-100.3" font-family="Times,serif" font-size="14.00">class</text>
<polyline fill="none" stroke="black" points="835.5,-92.5 835.5,-115.5 "/>
<text text-anchor="middle" x="883.5" y="-100.3" font-family="Times,serif" font-size="14.00">0</text>
<polyline fill="none" stroke="black" points="713.5,-92.5 931.5,-92.5 "/>
<text text-anchor="middle" x="772.5" y="-77.3" font-family="Times,serif" font-size="14.00">error</text>
<polyline fill="none" stroke="black" points="831.5,-69.5 831.5,-92.5 "/>
<text text-anchor="middle" x="881.5" y="-77.3" font-family="Times,serif" font-size="14.00">10</text>
<polyline fill="none" stroke="black" points="713.5,-69.5 931.5,-69.5 "/>
<text text-anchor="middle" x="786" y="-54.3" font-family="Times,serif" font-size="14.00">misclassified</text>
<polyline fill="none" stroke="black" points="858.5,-46.5 858.5,-69.5 "/>
<text text-anchor="middle" x="895" y="-54.3" font-family="Times,serif" font-size="14.00">10</text>
<polyline fill="none" stroke="black" points="713.5,-46.5 931.5,-46.5 "/>
<text text-anchor="middle" x="794" y="-31.3" font-family="Times,serif" font-size="14.00">discrimination_train</text>
<polyline fill="none" stroke="black" points="874.5,-23.5 874.5,-46.5 "/>
<text text-anchor="middle" x="903" y="-31.3" font-family="Times,serif" font-size="14.00">0.043</text>
<polyline fill="none" stroke="black" points="713.5,-23.5 931.5,-23.5 "/>
<text text-anchor="middle" x="801" y="-8.3" font-family="Times,serif" font-size="14.00">discrimination_pred</text>
<polyline fill="none" stroke="black" points="888.5,-0.5 888.5,-23.5 "/>
<text text-anchor="middle" x="910" y="-8.3" font-family="Times,serif" font-size="14.00">0</text>
</g>
<!-- node_aa2c9b8f_18b2_45b4_b606_fc7a42e13238&#45;&gt;leaf_baa02257_262f_4af3_b6ce_8d611755f627 -->
<g id="edge6" class="edge">
<title>node_aa2c9b8f_18b2_45b4_b606_fc7a42e13238&#45;&gt;leaf_baa02257_262f_4af3_b6ce_8d611755f627</title>
<path fill="none" stroke="black" d="M626.08,-148.92C647.04,-140.51 673.36,-129.72 704.09,-116.13"/>
<polygon fill="black" stroke="black" points="705.6,-119.29 713.32,-112.03 702.76,-112.89 705.6,-119.29"/>
<text text-anchor="middle" x="690.5" y="-127.8" font-family="Times,serif" font-size="14.00">0</text>
</g>
</g>
</svg>
