<?xml version="1.0" encoding="UTF-8" standalone="no"?>
<!DOCTYPE svg PUBLIC "-//W3C//DTD SVG 1.1//EN"
 "http://www.w3.org/Graphics/SVG/1.1/DTD/svg11.dtd">
<!-- Generated by graphviz version 2.43.0 (0)
 -->
<!-- Title: Tree Pages: 1 -->
<svg width="1667pt" height="719pt"
 viewBox="0.00 0.00 1666.50 719.00" xmlns="http://www.w3.org/2000/svg" xmlns:xlink="http://www.w3.org/1999/xlink">
<g id="graph0" class="graph" transform="scale(1 1) rotate(0) translate(4 715)">
<title>Tree</title>
<polygon fill="white" stroke="transparent" points="-4,4 -4,-715 1662.5,-715 1662.5,4 -4,4"/>
<!-- node_d39b0303_b735_4885_8910_69ec1a3bbb11 -->
<g id="node1" class="node">
<title>node_d39b0303_b735_4885_8910_69ec1a3bbb11</title>
<polygon fill="none" stroke="black" points="801,-674.5 801,-710.5 880,-710.5 880,-674.5 801,-674.5"/>
<text text-anchor="middle" x="823" y="-688.8" font-family="Times,serif" font-size="14.00">feat</text>
<polyline fill="none" stroke="black" points="845,-674.5 845,-710.5 "/>
<text text-anchor="middle" x="862.5" y="-688.8" font-family="Times,serif" font-size="14.00">10</text>
</g>
<!-- leaf_870c4196_b5e7_4214_b575_c8c55fa66adc -->
<g id="node2" class="node">
<title>leaf_870c4196_b5e7_4214_b575_c8c55fa66adc</title>
<polygon fill="none" stroke="black" points="748.5,-573.5 748.5,-642.5 900.5,-642.5 900.5,-573.5 748.5,-573.5"/>
<text text-anchor="middle" x="793" y="-627.3" font-family="Times,serif" font-size="14.00">class</text>
<polyline fill="none" stroke="black" points="837.5,-619.5 837.5,-642.5 "/>
<text text-anchor="middle" x="869" y="-627.3" font-family="Times,serif" font-size="14.00">1</text>
<polyline fill="none" stroke="black" points="748.5,-619.5 900.5,-619.5 "/>
<text text-anchor="middle" x="793" y="-604.3" font-family="Times,serif" font-size="14.00">error</text>
<polyline fill="none" stroke="black" points="837.5,-596.5 837.5,-619.5 "/>
<text text-anchor="middle" x="869" y="-604.3" font-family="Times,serif" font-size="14.00">0</text>
<polyline fill="none" stroke="black" points="748.5,-596.5 900.5,-596.5 "/>
<text text-anchor="middle" x="779.5" y="-581.3" font-family="Times,serif" font-size="14.00">values</text>
<polyline fill="none" stroke="black" points="810.5,-573.5 810.5,-596.5 "/>
<text text-anchor="middle" x="855.5" y="-581.3" font-family="Times,serif" font-size="14.00">[0.0, 32.0]</text>
</g>
<!-- node_d39b0303_b735_4885_8910_69ec1a3bbb11&#45;&gt;leaf_870c4196_b5e7_4214_b575_c8c55fa66adc -->
<g id="edge1" class="edge">
<title>node_d39b0303_b735_4885_8910_69ec1a3bbb11&#45;&gt;leaf_870c4196_b5e7_4214_b575_c8c55fa66adc</title>
<path fill="none" stroke="black" d="M837.18,-674.41C835.95,-668.04 834.49,-660.49 833,-652.82"/>
<polygon fill="black" stroke="black" points="836.39,-651.91 831.05,-642.75 829.51,-653.24 836.39,-651.91"/>
<text text-anchor="middle" x="840.5" y="-654.8" font-family="Times,serif" font-size="14.00">1</text>
</g>
<!-- node_9dd37284_2cfa_4bc1_8490_16b9b6b73d1e -->
<g id="node3" class="node">
<title>node_9dd37284_2cfa_4bc1_8490_16b9b6b73d1e</title>
<polygon fill="none" stroke="black" points="918.5,-590 918.5,-626 988.5,-626 988.5,-590 918.5,-590"/>
<text text-anchor="middle" x="940.5" y="-604.3" font-family="Times,serif" font-size="14.00">feat</text>
<polyline fill="none" stroke="black" points="962.5,-590 962.5,-626 "/>
<text text-anchor="middle" x="975.5" y="-604.3" font-family="Times,serif" font-size="14.00">9</text>
</g>
<!-- node_d39b0303_b735_4885_8910_69ec1a3bbb11&#45;&gt;node_9dd37284_2cfa_4bc1_8490_16b9b6b73d1e -->
<g id="edge2" class="edge">
<title>node_d39b0303_b735_4885_8910_69ec1a3bbb11&#45;&gt;node_9dd37284_2cfa_4bc1_8490_16b9b6b73d1e</title>
<path fill="none" stroke="black" d="M865.28,-674.48C878.51,-665.3 895,-653.69 909.5,-643 914.07,-639.63 918.85,-636.02 923.52,-632.46"/>
<polygon fill="black" stroke="black" points="925.93,-635.02 931.72,-626.15 921.66,-629.47 925.93,-635.02"/>
<text text-anchor="middle" x="903.5" y="-654.8" font-family="Times,serif" font-size="14.00">0</text>
</g>
<!-- node_4b3d5704_bb61_4067_8802_dd4df1b00704 -->
<g id="node4" class="node">
<title>node_4b3d5704_bb61_4067_8802_dd4df1b00704</title>
<polygon fill="none" stroke="black" points="641.5,-505.5 641.5,-541.5 711.5,-541.5 711.5,-505.5 641.5,-505.5"/>
<text text-anchor="middle" x="663.5" y="-519.8" font-family="Times,serif" font-size="14.00">feat</text>
<polyline fill="none" stroke="black" points="685.5,-505.5 685.5,-541.5 "/>
<text text-anchor="middle" x="698.5" y="-519.8" font-family="Times,serif" font-size="14.00">2</text>
</g>
<!-- node_9dd37284_2cfa_4bc1_8490_16b9b6b73d1e&#45;&gt;node_4b3d5704_bb61_4067_8802_dd4df1b00704 -->
<g id="edge3" class="edge">
<title>node_9dd37284_2cfa_4bc1_8490_16b9b6b73d1e&#45;&gt;node_4b3d5704_bb61_4067_8802_dd4df1b00704</title>
<path fill="none" stroke="black" d="M935.03,-589.72C927.59,-583.6 918.62,-577.2 909.5,-573 848.14,-544.74 770.11,-532.8 721.74,-527.85"/>
<polygon fill="black" stroke="black" points="721.88,-524.35 711.59,-526.87 721.21,-531.32 721.88,-524.35"/>
<text text-anchor="middle" x="891.5" y="-553.8" font-family="Times,serif" font-size="14.00">1</text>
</g>
<!-- node_977b26ff_b33f_400a_86cb_1d000f934323 -->
<g id="node17" class="node">
<title>node_977b26ff_b33f_400a_86cb_1d000f934323</title>
<polygon fill="none" stroke="black" points="1059.5,-505.5 1059.5,-541.5 1129.5,-541.5 1129.5,-505.5 1059.5,-505.5"/>
<text text-anchor="middle" x="1081.5" y="-519.8" font-family="Times,serif" font-size="14.00">feat</text>
<polyline fill="none" stroke="black" points="1103.5,-505.5 1103.5,-541.5 "/>
<text text-anchor="middle" x="1116.5" y="-519.8" font-family="Times,serif" font-size="14.00">1</text>
</g>
<!-- node_9dd37284_2cfa_4bc1_8490_16b9b6b73d1e&#45;&gt;node_977b26ff_b33f_400a_86cb_1d000f934323 -->
<g id="edge16" class="edge">
<title>node_9dd37284_2cfa_4bc1_8490_16b9b6b73d1e&#45;&gt;node_977b26ff_b33f_400a_86cb_1d000f934323</title>
<path fill="none" stroke="black" d="M982.72,-589.91C1004.08,-577.41 1033.25,-560.34 1056.44,-546.77"/>
<polygon fill="black" stroke="black" points="1058.46,-549.64 1065.32,-541.57 1054.92,-543.6 1058.46,-549.64"/>
<text text-anchor="middle" x="1054.5" y="-553.8" font-family="Times,serif" font-size="14.00">0</text>
</g>
<!-- node_508c8d30_579a_41d1_abc8_8214a51bc67d -->
<g id="node5" class="node">
<title>node_508c8d30_579a_41d1_abc8_8214a51bc67d</title>
<polygon fill="none" stroke="black" points="440.5,-421 440.5,-457 510.5,-457 510.5,-421 440.5,-421"/>
<text text-anchor="middle" x="462.5" y="-435.3" font-family="Times,serif" font-size="14.00">feat</text>
<polyline fill="none" stroke="black" points="484.5,-421 484.5,-457 "/>
<text text-anchor="middle" x="497.5" y="-435.3" font-family="Times,serif" font-size="14.00">1</text>
</g>
<!-- node_4b3d5704_bb61_4067_8802_dd4df1b00704&#45;&gt;node_508c8d30_579a_41d1_abc8_8214a51bc67d -->
<g id="edge4" class="edge">
<title>node_4b3d5704_bb61_4067_8802_dd4df1b00704&#45;&gt;node_508c8d30_579a_41d1_abc8_8214a51bc67d</title>
<path fill="none" stroke="black" d="M641.49,-508.13C607.83,-494.31 556.81,-473.37 520.22,-458.36"/>
<polygon fill="black" stroke="black" points="521.36,-455.04 510.78,-454.48 518.71,-461.52 521.36,-455.04"/>
<text text-anchor="middle" x="616.5" y="-485.8" font-family="Times,serif" font-size="14.00">1</text>
</g>
<!-- node_db086e80_672d_45bf_bbbc_ef386e503ab1 -->
<g id="node12" class="node">
<title>node_db086e80_672d_45bf_bbbc_ef386e503ab1</title>
<polygon fill="none" stroke="black" points="641.5,-421 641.5,-457 711.5,-457 711.5,-421 641.5,-421"/>
<text text-anchor="middle" x="663.5" y="-435.3" font-family="Times,serif" font-size="14.00">feat</text>
<polyline fill="none" stroke="black" points="685.5,-421 685.5,-457 "/>
<text text-anchor="middle" x="698.5" y="-435.3" font-family="Times,serif" font-size="14.00">0</text>
</g>
<!-- node_4b3d5704_bb61_4067_8802_dd4df1b00704&#45;&gt;node_db086e80_672d_45bf_bbbc_ef386e503ab1 -->
<g id="edge11" class="edge">
<title>node_4b3d5704_bb61_4067_8802_dd4df1b00704&#45;&gt;node_db086e80_672d_45bf_bbbc_ef386e503ab1</title>
<path fill="none" stroke="black" d="M676.5,-505.41C676.5,-494.34 676.5,-479.7 676.5,-467.08"/>
<polygon fill="black" stroke="black" points="680,-467.07 676.5,-457.07 673,-467.07 680,-467.07"/>
<text text-anchor="middle" x="681.5" y="-485.8" font-family="Times,serif" font-size="14.00">0</text>
</g>
<!-- node_ec9eedfe_4b0a_4720_9bd7_f86b1953f425 -->
<g id="node6" class="node">
<title>node_ec9eedfe_4b0a_4720_9bd7_f86b1953f425</title>
<polygon fill="none" stroke="black" points="215.5,-320 215.5,-356 285.5,-356 285.5,-320 215.5,-320"/>
<text text-anchor="middle" x="237.5" y="-334.3" font-family="Times,serif" font-size="14.00">feat</text>
<polyline fill="none" stroke="black" points="259.5,-320 259.5,-356 "/>
<text text-anchor="middle" x="272.5" y="-334.3" font-family="Times,serif" font-size="14.00">0</text>
</g>
<!-- node_508c8d30_579a_41d1_abc8_8214a51bc67d&#45;&gt;node_ec9eedfe_4b0a_4720_9bd7_f86b1953f425 -->
<g id="edge5" class="edge">
<title>node_508c8d30_579a_41d1_abc8_8214a51bc67d&#45;&gt;node_ec9eedfe_4b0a_4720_9bd7_f86b1953f425</title>
<path fill="none" stroke="black" d="M440.34,-422.53C401.16,-405.29 337.72,-377.38 295.08,-358.61"/>
<polygon fill="black" stroke="black" points="296.34,-355.35 285.78,-354.52 293.52,-361.75 296.34,-355.35"/>
<text text-anchor="middle" x="381.5" y="-384.8" font-family="Times,serif" font-size="14.00">1</text>
</g>
<!-- node_c2e558cb_35bc_4cbb_8bbc_1e55263eef14 -->
<g id="node9" class="node">
<title>node_c2e558cb_35bc_4cbb_8bbc_1e55263eef14</title>
<polygon fill="none" stroke="black" points="440.5,-320 440.5,-356 510.5,-356 510.5,-320 440.5,-320"/>
<text text-anchor="middle" x="462.5" y="-334.3" font-family="Times,serif" font-size="14.00">feat</text>
<polyline fill="none" stroke="black" points="484.5,-320 484.5,-356 "/>
<text text-anchor="middle" x="497.5" y="-334.3" font-family="Times,serif" font-size="14.00">0</text>
</g>
<!-- node_508c8d30_579a_41d1_abc8_8214a51bc67d&#45;&gt;node_c2e558cb_35bc_4cbb_8bbc_1e55263eef14 -->
<g id="edge8" class="edge">
<title>node_508c8d30_579a_41d1_abc8_8214a51bc67d&#45;&gt;node_c2e558cb_35bc_4cbb_8bbc_1e55263eef14</title>
<path fill="none" stroke="black" d="M475.5,-420.76C475.5,-405.71 475.5,-383.62 475.5,-366.19"/>
<polygon fill="black" stroke="black" points="479,-366.05 475.5,-356.05 472,-366.05 479,-366.05"/>
<text text-anchor="middle" x="480.5" y="-384.8" font-family="Times,serif" font-size="14.00">0</text>
</g>
<!-- leaf_1c45800d_3d41_4f78_a344_cd8c0037cd51 -->
<g id="node7" class="node">
<title>leaf_1c45800d_3d41_4f78_a344_cd8c0037cd51</title>
<polygon fill="none" stroke="black" points="0,-202.5 0,-271.5 161,-271.5 161,-202.5 0,-202.5"/>
<text text-anchor="middle" x="46.5" y="-256.3" font-family="Times,serif" font-size="14.00">class</text>
<polyline fill="none" stroke="black" points="93,-248.5 93,-271.5 "/>
<text text-anchor="middle" x="127" y="-256.3" font-family="Times,serif" font-size="14.00">1</text>
<polyline fill="none" stroke="black" points="0,-248.5 161,-248.5 "/>
<text text-anchor="middle" x="47" y="-233.3" font-family="Times,serif" font-size="14.00">error</text>
<polyline fill="none" stroke="black" points="94,-225.5 94,-248.5 "/>
<text text-anchor="middle" x="127.5" y="-233.3" font-family="Times,serif" font-size="14.00">0</text>
<polyline fill="none" stroke="black" points="0,-225.5 161,-225.5 "/>
<text text-anchor="middle" x="31" y="-210.3" font-family="Times,serif" font-size="14.00">values</text>
<polyline fill="none" stroke="black" points="62,-202.5 62,-225.5 "/>
<text text-anchor="middle" x="111.5" y="-210.3" font-family="Times,serif" font-size="14.00">[10.0, 11.0]</text>
</g>
<!-- node_ec9eedfe_4b0a_4720_9bd7_f86b1953f425&#45;&gt;leaf_1c45800d_3d41_4f78_a344_cd8c0037cd51 -->
<g id="edge6" class="edge">
<title>node_ec9eedfe_4b0a_4720_9bd7_f86b1953f425&#45;&gt;leaf_1c45800d_3d41_4f78_a344_cd8c0037cd51</title>
<path fill="none" stroke="black" d="M221.28,-319.98C200.9,-308.11 172.85,-291.78 147.16,-276.82"/>
<polygon fill="black" stroke="black" points="148.59,-273.6 138.19,-271.59 145.07,-279.65 148.59,-273.6"/>
<text text-anchor="middle" x="181.5" y="-283.8" font-family="Times,serif" font-size="14.00">1</text>
</g>
<!-- leaf_ecfd1943_4b64_4f9c_979e_834b54eac82e -->
<g id="node8" class="node">
<title>leaf_ecfd1943_4b64_4f9c_979e_834b54eac82e</title>
<polygon fill="none" stroke="black" points="179,-202.5 179,-271.5 322,-271.5 322,-202.5 179,-202.5"/>
<text text-anchor="middle" x="221" y="-256.3" font-family="Times,serif" font-size="14.00">class</text>
<polyline fill="none" stroke="black" points="263,-248.5 263,-271.5 "/>
<text text-anchor="middle" x="292.5" y="-256.3" font-family="Times,serif" font-size="14.00">0</text>
<polyline fill="none" stroke="black" points="179,-248.5 322,-248.5 "/>
<text text-anchor="middle" x="221.5" y="-233.3" font-family="Times,serif" font-size="14.00">error</text>
<polyline fill="none" stroke="black" points="264,-225.5 264,-248.5 "/>
<text text-anchor="middle" x="293" y="-233.3" font-family="Times,serif" font-size="14.00">0</text>
<polyline fill="none" stroke="black" points="179,-225.5 322,-225.5 "/>
<text text-anchor="middle" x="210" y="-210.3" font-family="Times,serif" font-size="14.00">values</text>
<polyline fill="none" stroke="black" points="241,-202.5 241,-225.5 "/>
<text text-anchor="middle" x="281.5" y="-210.3" font-family="Times,serif" font-size="14.00">[3.0, 0.0]</text>
</g>
<!-- node_ec9eedfe_4b0a_4720_9bd7_f86b1953f425&#45;&gt;leaf_ecfd1943_4b64_4f9c_979e_834b54eac82e -->
<g id="edge7" class="edge">
<title>node_ec9eedfe_4b0a_4720_9bd7_f86b1953f425&#45;&gt;leaf_ecfd1943_4b64_4f9c_979e_834b54eac82e</title>
<path fill="none" stroke="black" d="M250.5,-319.76C250.5,-309.25 250.5,-295.31 250.5,-281.92"/>
<polygon fill="black" stroke="black" points="254,-281.85 250.5,-271.85 247,-281.85 254,-281.85"/>
<text text-anchor="middle" x="255.5" y="-283.8" font-family="Times,serif" font-size="14.00">0</text>
</g>
<!-- leaf_7cb010a5_1754_402c_a299_3f11c711db93 -->
<g id="node10" class="node">
<title>leaf_7cb010a5_1754_402c_a299_3f11c711db93</title>
<polygon fill="none" stroke="black" points="340,-202.5 340,-271.5 483,-271.5 483,-202.5 340,-202.5"/>
<text text-anchor="middle" x="382" y="-256.3" font-family="Times,serif" font-size="14.00">class</text>
<polyline fill="none" stroke="black" points="424,-248.5 424,-271.5 "/>
<text text-anchor="middle" x="453.5" y="-256.3" font-family="Times,serif" font-size="14.00">0</text>
<polyline fill="none" stroke="black" points="340,-248.5 483,-248.5 "/>
<text text-anchor="middle" x="382.5" y="-233.3" font-family="Times,serif" font-size="14.00">error</text>
<polyline fill="none" stroke="black" points="425,-225.5 425,-248.5 "/>
<text text-anchor="middle" x="454" y="-233.3" font-family="Times,serif" font-size="14.00">0</text>
<polyline fill="none" stroke="black" points="340,-225.5 483,-225.5 "/>
<text text-anchor="middle" x="371" y="-210.3" font-family="Times,serif" font-size="14.00">values</text>
<polyline fill="none" stroke="black" points="402,-202.5 402,-225.5 "/>
<text text-anchor="middle" x="442.5" y="-210.3" font-family="Times,serif" font-size="14.00">[6.0, 1.0]</text>
</g>
<!-- node_c2e558cb_35bc_4cbb_8bbc_1e55263eef14&#45;&gt;leaf_7cb010a5_1754_402c_a299_3f11c711db93 -->
<g id="edge9" class="edge">
<title>node_c2e558cb_35bc_4cbb_8bbc_1e55263eef14&#45;&gt;leaf_7cb010a5_1754_402c_a299_3f11c711db93</title>
<path fill="none" stroke="black" d="M464.35,-319.76C457.29,-308.84 447.84,-294.21 438.88,-280.35"/>
<polygon fill="black" stroke="black" points="441.75,-278.35 433.39,-271.85 435.88,-282.15 441.75,-278.35"/>
<text text-anchor="middle" x="452.5" y="-283.8" font-family="Times,serif" font-size="14.00">1</text>
</g>
<!-- leaf_8a8743a0_120d_4038_b6d9_fdefbde93251 -->
<g id="node11" class="node">
<title>leaf_8a8743a0_120d_4038_b6d9_fdefbde93251</title>
<polygon fill="none" stroke="black" points="501,-202.5 501,-271.5 644,-271.5 644,-202.5 501,-202.5"/>
<text text-anchor="middle" x="543" y="-256.3" font-family="Times,serif" font-size="14.00">class</text>
<polyline fill="none" stroke="black" points="585,-248.5 585,-271.5 "/>
<text text-anchor="middle" x="614.5" y="-256.3" font-family="Times,serif" font-size="14.00">1</text>
<polyline fill="none" stroke="black" points="501,-248.5 644,-248.5 "/>
<text text-anchor="middle" x="543.5" y="-233.3" font-family="Times,serif" font-size="14.00">error</text>
<polyline fill="none" stroke="black" points="586,-225.5 586,-248.5 "/>
<text text-anchor="middle" x="615" y="-233.3" font-family="Times,serif" font-size="14.00">0</text>
<polyline fill="none" stroke="black" points="501,-225.5 644,-225.5 "/>
<text text-anchor="middle" x="532" y="-210.3" font-family="Times,serif" font-size="14.00">values</text>
<polyline fill="none" stroke="black" points="563,-202.5 563,-225.5 "/>
<text text-anchor="middle" x="603.5" y="-210.3" font-family="Times,serif" font-size="14.00">[0.0, 1.0]</text>
</g>
<!-- node_c2e558cb_35bc_4cbb_8bbc_1e55263eef14&#45;&gt;leaf_8a8743a0_120d_4038_b6d9_fdefbde93251 -->
<g id="edge10" class="edge">
<title>node_c2e558cb_35bc_4cbb_8bbc_1e55263eef14&#45;&gt;leaf_8a8743a0_120d_4038_b6d9_fdefbde93251</title>
<path fill="none" stroke="black" d="M492.4,-319.76C503.4,-308.53 518.24,-293.38 532.16,-279.17"/>
<polygon fill="black" stroke="black" points="534.83,-281.45 539.33,-271.85 529.83,-276.55 534.83,-281.45"/>
<text text-anchor="middle" x="535.5" y="-283.8" font-family="Times,serif" font-size="14.00">0</text>
</g>
<!-- leaf_0c0b66f2_9aca_4ea2_90c2_22ac78c51005 -->
<g id="node13" class="node">
<title>leaf_0c0b66f2_9aca_4ea2_90c2_22ac78c51005</title>
<polygon fill="none" stroke="black" points="560.5,-303.5 560.5,-372.5 712.5,-372.5 712.5,-303.5 560.5,-303.5"/>
<text text-anchor="middle" x="605" y="-357.3" font-family="Times,serif" font-size="14.00">class</text>
<polyline fill="none" stroke="black" points="649.5,-349.5 649.5,-372.5 "/>
<text text-anchor="middle" x="681" y="-357.3" font-family="Times,serif" font-size="14.00">1</text>
<polyline fill="none" stroke="black" points="560.5,-349.5 712.5,-349.5 "/>
<text text-anchor="middle" x="605" y="-334.3" font-family="Times,serif" font-size="14.00">error</text>
<polyline fill="none" stroke="black" points="649.5,-326.5 649.5,-349.5 "/>
<text text-anchor="middle" x="681" y="-334.3" font-family="Times,serif" font-size="14.00">0</text>
<polyline fill="none" stroke="black" points="560.5,-326.5 712.5,-326.5 "/>
<text text-anchor="middle" x="591.5" y="-311.3" font-family="Times,serif" font-size="14.00">values</text>
<polyline fill="none" stroke="black" points="622.5,-303.5 622.5,-326.5 "/>
<text text-anchor="middle" x="667.5" y="-311.3" font-family="Times,serif" font-size="14.00">[0.0, 26.0]</text>
</g>
<!-- node_db086e80_672d_45bf_bbbc_ef386e503ab1&#45;&gt;leaf_0c0b66f2_9aca_4ea2_90c2_22ac78c51005 -->
<g id="edge12" class="edge">
<title>node_db086e80_672d_45bf_bbbc_ef386e503ab1&#45;&gt;leaf_0c0b66f2_9aca_4ea2_90c2_22ac78c51005</title>
<path fill="none" stroke="black" d="M669.53,-420.76C665.2,-410.04 659.43,-395.76 653.93,-382.13"/>
<polygon fill="black" stroke="black" points="657.17,-380.81 650.18,-372.85 650.68,-383.44 657.17,-380.81"/>
<text text-anchor="middle" x="664.5" y="-384.8" font-family="Times,serif" font-size="14.00">1</text>
</g>
<!-- node_0a82fd98_d738_4b8d_8af5_c35451f8f103 -->
<g id="node14" class="node">
<title>node_0a82fd98_d738_4b8d_8af5_c35451f8f103</title>
<polygon fill="none" stroke="black" points="730.5,-320 730.5,-356 800.5,-356 800.5,-320 730.5,-320"/>
<text text-anchor="middle" x="752.5" y="-334.3" font-family="Times,serif" font-size="14.00">feat</text>
<polyline fill="none" stroke="black" points="774.5,-320 774.5,-356 "/>
<text text-anchor="middle" x="787.5" y="-334.3" font-family="Times,serif" font-size="14.00">3</text>
</g>
<!-- node_db086e80_672d_45bf_bbbc_ef386e503ab1&#45;&gt;node_0a82fd98_d738_4b8d_8af5_c35451f8f103 -->
<g id="edge13" class="edge">
<title>node_db086e80_672d_45bf_bbbc_ef386e503ab1&#45;&gt;node_0a82fd98_d738_4b8d_8af5_c35451f8f103</title>
<path fill="none" stroke="black" d="M692,-420.76C706.17,-405 727.28,-381.52 743.24,-363.76"/>
<polygon fill="black" stroke="black" points="746.09,-365.82 750.18,-356.05 740.89,-361.14 746.09,-365.82"/>
<text text-anchor="middle" x="731.5" y="-384.8" font-family="Times,serif" font-size="14.00">0</text>
</g>
<!-- leaf_5a4b3924_2c54_46b4_b1b3_71b3a362425e -->
<g id="node15" class="node">
<title>leaf_5a4b3924_2c54_46b4_b1b3_71b3a362425e</title>
<polygon fill="none" stroke="black" points="662,-202.5 662,-271.5 805,-271.5 805,-202.5 662,-202.5"/>
<text text-anchor="middle" x="704" y="-256.3" font-family="Times,serif" font-size="14.00">class</text>
<polyline fill="none" stroke="black" points="746,-248.5 746,-271.5 "/>
<text text-anchor="middle" x="775.5" y="-256.3" font-family="Times,serif" font-size="14.00">0</text>
<polyline fill="none" stroke="black" points="662,-248.5 805,-248.5 "/>
<text text-anchor="middle" x="704.5" y="-233.3" font-family="Times,serif" font-size="14.00">error</text>
<polyline fill="none" stroke="black" points="747,-225.5 747,-248.5 "/>
<text text-anchor="middle" x="776" y="-233.3" font-family="Times,serif" font-size="14.00">0</text>
<polyline fill="none" stroke="black" points="662,-225.5 805,-225.5 "/>
<text text-anchor="middle" x="693" y="-210.3" font-family="Times,serif" font-size="14.00">values</text>
<polyline fill="none" stroke="black" points="724,-202.5 724,-225.5 "/>
<text text-anchor="middle" x="764.5" y="-210.3" font-family="Times,serif" font-size="14.00">[2.0, 1.0]</text>
</g>
<!-- node_0a82fd98_d738_4b8d_8af5_c35451f8f103&#45;&gt;leaf_5a4b3924_2c54_46b4_b1b3_71b3a362425e -->
<g id="edge14" class="edge">
<title>node_0a82fd98_d738_4b8d_8af5_c35451f8f103&#45;&gt;leaf_5a4b3924_2c54_46b4_b1b3_71b3a362425e</title>
<path fill="none" stroke="black" d="M759.93,-319.76C756.5,-309.15 751.94,-295.03 747.57,-281.53"/>
<polygon fill="black" stroke="black" points="750.85,-280.29 744.44,-271.85 744.19,-282.45 750.85,-280.29"/>
<text text-anchor="middle" x="756.5" y="-283.8" font-family="Times,serif" font-size="14.00">1</text>
</g>
<!-- leaf_0728e600_e410_46a2_a3dd_089f3ee28f83 -->
<g id="node16" class="node">
<title>leaf_0728e600_e410_46a2_a3dd_089f3ee28f83</title>
<polygon fill="none" stroke="black" points="823,-202.5 823,-271.5 966,-271.5 966,-202.5 823,-202.5"/>
<text text-anchor="middle" x="865" y="-256.3" font-family="Times,serif" font-size="14.00">class</text>
<polyline fill="none" stroke="black" points="907,-248.5 907,-271.5 "/>
<text text-anchor="middle" x="936.5" y="-256.3" font-family="Times,serif" font-size="14.00">1</text>
<polyline fill="none" stroke="black" points="823,-248.5 966,-248.5 "/>
<text text-anchor="middle" x="865.5" y="-233.3" font-family="Times,serif" font-size="14.00">error</text>
<polyline fill="none" stroke="black" points="908,-225.5 908,-248.5 "/>
<text text-anchor="middle" x="937" y="-233.3" font-family="Times,serif" font-size="14.00">0</text>
<polyline fill="none" stroke="black" points="823,-225.5 966,-225.5 "/>
<text text-anchor="middle" x="854" y="-210.3" font-family="Times,serif" font-size="14.00">values</text>
<polyline fill="none" stroke="black" points="885,-202.5 885,-225.5 "/>
<text text-anchor="middle" x="925.5" y="-210.3" font-family="Times,serif" font-size="14.00">[1.0, 2.0]</text>
</g>
<!-- node_0a82fd98_d738_4b8d_8af5_c35451f8f103&#45;&gt;leaf_0728e600_e410_46a2_a3dd_089f3ee28f83 -->
<g id="edge15" class="edge">
<title>node_0a82fd98_d738_4b8d_8af5_c35451f8f103&#45;&gt;leaf_0728e600_e410_46a2_a3dd_089f3ee28f83</title>
<path fill="none" stroke="black" d="M787.68,-319.98C802.8,-308.37 823.49,-292.49 842.64,-277.8"/>
<polygon fill="black" stroke="black" points="844.92,-280.46 850.73,-271.59 840.66,-274.91 844.92,-280.46"/>
<text text-anchor="middle" x="843.5" y="-283.8" font-family="Times,serif" font-size="14.00">0</text>
</g>
<!-- node_d399319e_5f53_428c_b2db_d27ee0cde144 -->
<g id="node18" class="node">
<title>node_d399319e_5f53_428c_b2db_d27ee0cde144</title>
<polygon fill="none" stroke="black" points="1059.5,-421 1059.5,-457 1129.5,-457 1129.5,-421 1059.5,-421"/>
<text text-anchor="middle" x="1081.5" y="-435.3" font-family="Times,serif" font-size="14.00">feat</text>
<polyline fill="none" stroke="black" points="1103.5,-421 1103.5,-457 "/>
<text text-anchor="middle" x="1116.5" y="-435.3" font-family="Times,serif" font-size="14.00">4</text>
</g>
<!-- node_977b26ff_b33f_400a_86cb_1d000f934323&#45;&gt;node_d399319e_5f53_428c_b2db_d27ee0cde144 -->
<g id="edge17" class="edge">
<title>node_977b26ff_b33f_400a_86cb_1d000f934323&#45;&gt;node_d399319e_5f53_428c_b2db_d27ee0cde144</title>
<path fill="none" stroke="black" d="M1094.5,-505.41C1094.5,-494.34 1094.5,-479.7 1094.5,-467.08"/>
<polygon fill="black" stroke="black" points="1098,-467.07 1094.5,-457.07 1091,-467.07 1098,-467.07"/>
<text text-anchor="middle" x="1099.5" y="-485.8" font-family="Times,serif" font-size="14.00">1</text>
</g>
<!-- leaf_4aed5cec_4670_4118_bee4_fdd05fd0c9f3 -->
<g id="node31" class="node">
<title>leaf_4aed5cec_4670_4118_bee4_fdd05fd0c9f3</title>
<polygon fill="none" stroke="black" points="1147.5,-404.5 1147.5,-473.5 1299.5,-473.5 1299.5,-404.5 1147.5,-404.5"/>
<text text-anchor="middle" x="1192" y="-458.3" font-family="Times,serif" font-size="14.00">class</text>
<polyline fill="none" stroke="black" points="1236.5,-450.5 1236.5,-473.5 "/>
<text text-anchor="middle" x="1268" y="-458.3" font-family="Times,serif" font-size="14.00">0</text>
<polyline fill="none" stroke="black" points="1147.5,-450.5 1299.5,-450.5 "/>
<text text-anchor="middle" x="1192" y="-435.3" font-family="Times,serif" font-size="14.00">error</text>
<polyline fill="none" stroke="black" points="1236.5,-427.5 1236.5,-450.5 "/>
<text text-anchor="middle" x="1268" y="-435.3" font-family="Times,serif" font-size="14.00">0</text>
<polyline fill="none" stroke="black" points="1147.5,-427.5 1299.5,-427.5 "/>
<text text-anchor="middle" x="1178.5" y="-412.3" font-family="Times,serif" font-size="14.00">values</text>
<polyline fill="none" stroke="black" points="1209.5,-404.5 1209.5,-427.5 "/>
<text text-anchor="middle" x="1254.5" y="-412.3" font-family="Times,serif" font-size="14.00">[52.0, 0.0]</text>
</g>
<!-- node_977b26ff_b33f_400a_86cb_1d000f934323&#45;&gt;leaf_4aed5cec_4670_4118_bee4_fdd05fd0c9f3 -->
<g id="edge30" class="edge">
<title>node_977b26ff_b33f_400a_86cb_1d000f934323&#45;&gt;leaf_4aed5cec_4670_4118_bee4_fdd05fd0c9f3</title>
<path fill="none" stroke="black" d="M1121.23,-505.41C1133.26,-497.71 1147.99,-488.29 1162.49,-479.01"/>
<polygon fill="black" stroke="black" points="1164.44,-481.92 1170.98,-473.59 1160.67,-476.03 1164.44,-481.92"/>
<text text-anchor="middle" x="1160.5" y="-485.8" font-family="Times,serif" font-size="14.00">0</text>
</g>
<!-- node_943c7df7_719e_4f48_b93a_2ea835500eab -->
<g id="node19" class="node">
<title>node_943c7df7_719e_4f48_b93a_2ea835500eab</title>
<polygon fill="none" stroke="black" points="1059.5,-320 1059.5,-356 1129.5,-356 1129.5,-320 1059.5,-320"/>
<text text-anchor="middle" x="1081.5" y="-334.3" font-family="Times,serif" font-size="14.00">feat</text>
<polyline fill="none" stroke="black" points="1103.5,-320 1103.5,-356 "/>
<text text-anchor="middle" x="1116.5" y="-334.3" font-family="Times,serif" font-size="14.00">8</text>
</g>
<!-- node_d399319e_5f53_428c_b2db_d27ee0cde144&#45;&gt;node_943c7df7_719e_4f48_b93a_2ea835500eab -->
<g id="edge18" class="edge">
<title>node_d399319e_5f53_428c_b2db_d27ee0cde144&#45;&gt;node_943c7df7_719e_4f48_b93a_2ea835500eab</title>
<path fill="none" stroke="black" d="M1094.5,-420.76C1094.5,-405.71 1094.5,-383.62 1094.5,-366.19"/>
<polygon fill="black" stroke="black" points="1098,-366.05 1094.5,-356.05 1091,-366.05 1098,-366.05"/>
<text text-anchor="middle" x="1099.5" y="-384.8" font-family="Times,serif" font-size="14.00">1</text>
</g>
<!-- node_c602c886_fafc_4fe3_9ec4_daaa9617544a -->
<g id="node26" class="node">
<title>node_c602c886_fafc_4fe3_9ec4_daaa9617544a</title>
<polygon fill="none" stroke="black" points="1274.5,-320 1274.5,-356 1344.5,-356 1344.5,-320 1274.5,-320"/>
<text text-anchor="middle" x="1296.5" y="-334.3" font-family="Times,serif" font-size="14.00">feat</text>
<polyline fill="none" stroke="black" points="1318.5,-320 1318.5,-356 "/>
<text text-anchor="middle" x="1331.5" y="-334.3" font-family="Times,serif" font-size="14.00">2</text>
</g>
<!-- node_d399319e_5f53_428c_b2db_d27ee0cde144&#45;&gt;node_c602c886_fafc_4fe3_9ec4_daaa9617544a -->
<g id="edge25" class="edge">
<title>node_d399319e_5f53_428c_b2db_d27ee0cde144&#45;&gt;node_c602c886_fafc_4fe3_9ec4_daaa9617544a</title>
<path fill="none" stroke="black" d="M1114.22,-420.77C1121.52,-414.94 1130.08,-408.72 1138.5,-404 1179.15,-381.23 1229.37,-363.21 1264.84,-351.98"/>
<polygon fill="black" stroke="black" points="1265.92,-355.3 1274.43,-348.99 1263.84,-348.62 1265.92,-355.3"/>
<text text-anchor="middle" x="1189.5" y="-384.8" font-family="Times,serif" font-size="14.00">0</text>
</g>
<!-- leaf_176f68ca_87b5_42ec_81ae_57fb97610c3f -->
<g id="node20" class="node">
<title>leaf_176f68ca_87b5_42ec_81ae_57fb97610c3f</title>
<polygon fill="none" stroke="black" points="984,-202.5 984,-271.5 1127,-271.5 1127,-202.5 984,-202.5"/>
<text text-anchor="middle" x="1026" y="-256.3" font-family="Times,serif" font-size="14.00">class</text>
<polyline fill="none" stroke="black" points="1068,-248.5 1068,-271.5 "/>
<text text-anchor="middle" x="1097.5" y="-256.3" font-family="Times,serif" font-size="14.00">1</text>
<polyline fill="none" stroke="black" points="984,-248.5 1127,-248.5 "/>
<text text-anchor="middle" x="1026.5" y="-233.3" font-family="Times,serif" font-size="14.00">error</text>
<polyline fill="none" stroke="black" points="1069,-225.5 1069,-248.5 "/>
<text text-anchor="middle" x="1098" y="-233.3" font-family="Times,serif" font-size="14.00">0</text>
<polyline fill="none" stroke="black" points="984,-225.5 1127,-225.5 "/>
<text text-anchor="middle" x="1015" y="-210.3" font-family="Times,serif" font-size="14.00">values</text>
<polyline fill="none" stroke="black" points="1046,-202.5 1046,-225.5 "/>
<text text-anchor="middle" x="1086.5" y="-210.3" font-family="Times,serif" font-size="14.00">[0.0, 3.0]</text>
</g>
<!-- node_943c7df7_719e_4f48_b93a_2ea835500eab&#45;&gt;leaf_176f68ca_87b5_42ec_81ae_57fb97610c3f -->
<g id="edge19" class="edge">
<title>node_943c7df7_719e_4f48_b93a_2ea835500eab&#45;&gt;leaf_176f68ca_87b5_42ec_81ae_57fb97610c3f</title>
<path fill="none" stroke="black" d="M1087.71,-319.76C1083.53,-309.15 1077.97,-295.03 1072.65,-281.53"/>
<polygon fill="black" stroke="black" points="1075.76,-279.88 1068.84,-271.85 1069.25,-282.44 1075.76,-279.88"/>
<text text-anchor="middle" x="1082.5" y="-283.8" font-family="Times,serif" font-size="14.00">1</text>
</g>
<!-- node_cb71c3fa_cb12_47f8_9a35_1e433b84ab7b -->
<g id="node21" class="node">
<title>node_cb71c3fa_cb12_47f8_9a35_1e433b84ab7b</title>
<polygon fill="none" stroke="black" points="1145.5,-219 1145.5,-255 1215.5,-255 1215.5,-219 1145.5,-219"/>
<text text-anchor="middle" x="1167.5" y="-233.3" font-family="Times,serif" font-size="14.00">feat</text>
<polyline fill="none" stroke="black" points="1189.5,-219 1189.5,-255 "/>
<text text-anchor="middle" x="1202.5" y="-233.3" font-family="Times,serif" font-size="14.00">7</text>
</g>
<!-- node_943c7df7_719e_4f48_b93a_2ea835500eab&#45;&gt;node_cb71c3fa_cb12_47f8_9a35_1e433b84ab7b -->
<g id="edge20" class="edge">
<title>node_943c7df7_719e_4f48_b93a_2ea835500eab&#45;&gt;node_cb71c3fa_cb12_47f8_9a35_1e433b84ab7b</title>
<path fill="none" stroke="black" d="M1109.48,-319.76C1123.17,-304 1143.57,-280.52 1158.99,-262.76"/>
<polygon fill="black" stroke="black" points="1161.78,-264.89 1165.69,-255.05 1156.49,-260.3 1161.78,-264.89"/>
<text text-anchor="middle" x="1148.5" y="-283.8" font-family="Times,serif" font-size="14.00">0</text>
</g>
<!-- leaf_6561eae0_a9ec_466a_bfdb_e90ce4da43fa -->
<g id="node22" class="node">
<title>leaf_6561eae0_a9ec_466a_bfdb_e90ce4da43fa</title>
<polygon fill="none" stroke="black" points="1052,-101.5 1052,-170.5 1195,-170.5 1195,-101.5 1052,-101.5"/>
<text text-anchor="middle" x="1094" y="-155.3" font-family="Times,serif" font-size="14.00">class</text>
<polyline fill="none" stroke="black" points="1136,-147.5 1136,-170.5 "/>
<text text-anchor="middle" x="1165.5" y="-155.3" font-family="Times,serif" font-size="14.00">1</text>
<polyline fill="none" stroke="black" points="1052,-147.5 1195,-147.5 "/>
<text text-anchor="middle" x="1094.5" y="-132.3" font-family="Times,serif" font-size="14.00">error</text>
<polyline fill="none" stroke="black" points="1137,-124.5 1137,-147.5 "/>
<text text-anchor="middle" x="1166" y="-132.3" font-family="Times,serif" font-size="14.00">0</text>
<polyline fill="none" stroke="black" points="1052,-124.5 1195,-124.5 "/>
<text text-anchor="middle" x="1083" y="-109.3" font-family="Times,serif" font-size="14.00">values</text>
<polyline fill="none" stroke="black" points="1114,-101.5 1114,-124.5 "/>
<text text-anchor="middle" x="1154.5" y="-109.3" font-family="Times,serif" font-size="14.00">[0.0, 3.0]</text>
</g>
<!-- node_cb71c3fa_cb12_47f8_9a35_1e433b84ab7b&#45;&gt;leaf_6561eae0_a9ec_466a_bfdb_e90ce4da43fa -->
<g id="edge21" class="edge">
<title>node_cb71c3fa_cb12_47f8_9a35_1e433b84ab7b&#45;&gt;leaf_6561eae0_a9ec_466a_bfdb_e90ce4da43fa</title>
<path fill="none" stroke="black" d="M1170.57,-218.76C1164.34,-207.94 1156.02,-193.49 1148.11,-179.74"/>
<polygon fill="black" stroke="black" points="1151.01,-177.77 1142.99,-170.85 1144.95,-181.27 1151.01,-177.77"/>
<text text-anchor="middle" x="1160.5" y="-182.8" font-family="Times,serif" font-size="14.00">1</text>
</g>
<!-- node_f2a706ac_7fda_4d8a_80dd_319036760206 -->
<g id="node23" class="node">
<title>node_f2a706ac_7fda_4d8a_80dd_319036760206</title>
<polygon fill="none" stroke="black" points="1213.5,-118 1213.5,-154 1283.5,-154 1283.5,-118 1213.5,-118"/>
<text text-anchor="middle" x="1235.5" y="-132.3" font-family="Times,serif" font-size="14.00">feat</text>
<polyline fill="none" stroke="black" points="1257.5,-118 1257.5,-154 "/>
<text text-anchor="middle" x="1270.5" y="-132.3" font-family="Times,serif" font-size="14.00">0</text>
</g>
<!-- node_cb71c3fa_cb12_47f8_9a35_1e433b84ab7b&#45;&gt;node_f2a706ac_7fda_4d8a_80dd_319036760206 -->
<g id="edge22" class="edge">
<title>node_cb71c3fa_cb12_47f8_9a35_1e433b84ab7b&#45;&gt;node_f2a706ac_7fda_4d8a_80dd_319036760206</title>
<path fill="none" stroke="black" d="M1192.34,-218.76C1202.97,-203.28 1218.72,-180.36 1230.83,-162.72"/>
<polygon fill="black" stroke="black" points="1234.01,-164.27 1236.79,-154.05 1228.24,-160.31 1234.01,-164.27"/>
<text text-anchor="middle" x="1224.5" y="-182.8" font-family="Times,serif" font-size="14.00">0</text>
</g>
<!-- leaf_ac160a7b_7acd_45f6_93d7_dafbc762eea1 -->
<g id="node24" class="node">
<title>leaf_ac160a7b_7acd_45f6_93d7_dafbc762eea1</title>
<polygon fill="none" stroke="black" points="1094,-0.5 1094,-69.5 1237,-69.5 1237,-0.5 1094,-0.5"/>
<text text-anchor="middle" x="1136" y="-54.3" font-family="Times,serif" font-size="14.00">class</text>
<polyline fill="none" stroke="black" points="1178,-46.5 1178,-69.5 "/>
<text text-anchor="middle" x="1207.5" y="-54.3" font-family="Times,serif" font-size="14.00">0</text>
<polyline fill="none" stroke="black" points="1094,-46.5 1237,-46.5 "/>
<text text-anchor="middle" x="1136.5" y="-31.3" font-family="Times,serif" font-size="14.00">error</text>
<polyline fill="none" stroke="black" points="1179,-23.5 1179,-46.5 "/>
<text text-anchor="middle" x="1208" y="-31.3" font-family="Times,serif" font-size="14.00">0</text>
<polyline fill="none" stroke="black" points="1094,-23.5 1237,-23.5 "/>
<text text-anchor="middle" x="1125" y="-8.3" font-family="Times,serif" font-size="14.00">values</text>
<polyline fill="none" stroke="black" points="1156,-0.5 1156,-23.5 "/>
<text text-anchor="middle" x="1196.5" y="-8.3" font-family="Times,serif" font-size="14.00">[7.0, 1.0]</text>
</g>
<!-- node_f2a706ac_7fda_4d8a_80dd_319036760206&#45;&gt;leaf_ac160a7b_7acd_45f6_93d7_dafbc762eea1 -->
<g id="edge23" class="edge">
<title>node_f2a706ac_7fda_4d8a_80dd_319036760206&#45;&gt;leaf_ac160a7b_7acd_45f6_93d7_dafbc762eea1</title>
<path fill="none" stroke="black" d="M1234.04,-117.76C1224.72,-106.63 1212.16,-91.66 1200.35,-77.56"/>
<polygon fill="black" stroke="black" points="1202.99,-75.27 1193.88,-69.85 1197.63,-79.77 1202.99,-75.27"/>
<text text-anchor="middle" x="1217.5" y="-81.8" font-family="Times,serif" font-size="14.00">1</text>
</g>
<!-- leaf_9e67ee64_3c68_4075_80d7_388026bdcfcb -->
<g id="node25" class="node">
<title>leaf_9e67ee64_3c68_4075_80d7_388026bdcfcb</title>
<polygon fill="none" stroke="black" points="1255.5,-0.5 1255.5,-69.5 1407.5,-69.5 1407.5,-0.5 1255.5,-0.5"/>
<text text-anchor="middle" x="1300" y="-54.3" font-family="Times,serif" font-size="14.00">class</text>
<polyline fill="none" stroke="black" points="1344.5,-46.5 1344.5,-69.5 "/>
<text text-anchor="middle" x="1376" y="-54.3" font-family="Times,serif" font-size="14.00">0</text>
<polyline fill="none" stroke="black" points="1255.5,-46.5 1407.5,-46.5 "/>
<text text-anchor="middle" x="1300" y="-31.3" font-family="Times,serif" font-size="14.00">error</text>
<polyline fill="none" stroke="black" points="1344.5,-23.5 1344.5,-46.5 "/>
<text text-anchor="middle" x="1376" y="-31.3" font-family="Times,serif" font-size="14.00">0</text>
<polyline fill="none" stroke="black" points="1255.5,-23.5 1407.5,-23.5 "/>
<text text-anchor="middle" x="1286.5" y="-8.3" font-family="Times,serif" font-size="14.00">values</text>
<polyline fill="none" stroke="black" points="1317.5,-0.5 1317.5,-23.5 "/>
<text text-anchor="middle" x="1362.5" y="-8.3" font-family="Times,serif" font-size="14.00">[10.0, 0.0]</text>
</g>
<!-- node_f2a706ac_7fda_4d8a_80dd_319036760206&#45;&gt;leaf_9e67ee64_3c68_4075_80d7_388026bdcfcb -->
<g id="edge24" class="edge">
<title>node_f2a706ac_7fda_4d8a_80dd_319036760206&#45;&gt;leaf_9e67ee64_3c68_4075_80d7_388026bdcfcb</title>
<path fill="none" stroke="black" d="M1262.96,-117.76C1272.28,-106.63 1284.84,-91.66 1296.65,-77.56"/>
<polygon fill="black" stroke="black" points="1299.37,-79.77 1303.12,-69.85 1294.01,-75.27 1299.37,-79.77"/>
<text text-anchor="middle" x="1300.5" y="-81.8" font-family="Times,serif" font-size="14.00">0</text>
</g>
<!-- leaf_f863b915_9fb6_4670_9368_12c43b9190ba -->
<g id="node27" class="node">
<title>leaf_f863b915_9fb6_4670_9368_12c43b9190ba</title>
<polygon fill="none" stroke="black" points="1233.5,-202.5 1233.5,-271.5 1385.5,-271.5 1385.5,-202.5 1233.5,-202.5"/>
<text text-anchor="middle" x="1278" y="-256.3" font-family="Times,serif" font-size="14.00">class</text>
<polyline fill="none" stroke="black" points="1322.5,-248.5 1322.5,-271.5 "/>
<text text-anchor="middle" x="1354" y="-256.3" font-family="Times,serif" font-size="14.00">0</text>
<polyline fill="none" stroke="black" points="1233.5,-248.5 1385.5,-248.5 "/>
<text text-anchor="middle" x="1278" y="-233.3" font-family="Times,serif" font-size="14.00">error</text>
<polyline fill="none" stroke="black" points="1322.5,-225.5 1322.5,-248.5 "/>
<text text-anchor="middle" x="1354" y="-233.3" font-family="Times,serif" font-size="14.00">0</text>
<polyline fill="none" stroke="black" points="1233.5,-225.5 1385.5,-225.5 "/>
<text text-anchor="middle" x="1264.5" y="-210.3" font-family="Times,serif" font-size="14.00">values</text>
<polyline fill="none" stroke="black" points="1295.5,-202.5 1295.5,-225.5 "/>
<text text-anchor="middle" x="1340.5" y="-210.3" font-family="Times,serif" font-size="14.00">[21.0, 0.0]</text>
</g>
<!-- node_c602c886_fafc_4fe3_9ec4_daaa9617544a&#45;&gt;leaf_f863b915_9fb6_4670_9368_12c43b9190ba -->
<g id="edge26" class="edge">
<title>node_c602c886_fafc_4fe3_9ec4_daaa9617544a&#45;&gt;leaf_f863b915_9fb6_4670_9368_12c43b9190ba</title>
<path fill="none" stroke="black" d="M1309.5,-319.76C1309.5,-309.25 1309.5,-295.31 1309.5,-281.92"/>
<polygon fill="black" stroke="black" points="1313,-281.85 1309.5,-271.85 1306,-281.85 1313,-281.85"/>
<text text-anchor="middle" x="1314.5" y="-283.8" font-family="Times,serif" font-size="14.00">1</text>
</g>
<!-- node_f6f39c9c_e20a_4ef7_8ba2_3263aa216f67 -->
<g id="node28" class="node">
<title>node_f6f39c9c_e20a_4ef7_8ba2_3263aa216f67</title>
<polygon fill="none" stroke="black" points="1403.5,-219 1403.5,-255 1473.5,-255 1473.5,-219 1403.5,-219"/>
<text text-anchor="middle" x="1425.5" y="-233.3" font-family="Times,serif" font-size="14.00">feat</text>
<polyline fill="none" stroke="black" points="1447.5,-219 1447.5,-255 "/>
<text text-anchor="middle" x="1460.5" y="-233.3" font-family="Times,serif" font-size="14.00">8</text>
</g>
<!-- node_c602c886_fafc_4fe3_9ec4_daaa9617544a&#45;&gt;node_f6f39c9c_e20a_4ef7_8ba2_3263aa216f67 -->
<g id="edge27" class="edge">
<title>node_c602c886_fafc_4fe3_9ec4_daaa9617544a&#45;&gt;node_f6f39c9c_e20a_4ef7_8ba2_3263aa216f67</title>
<path fill="none" stroke="black" d="M1331.89,-319.92C1349.05,-306.83 1373.29,-288.3 1394.5,-272 1398.9,-268.62 1403.54,-265.04 1408.1,-261.52"/>
<polygon fill="black" stroke="black" points="1410.36,-264.2 1416.13,-255.32 1406.08,-258.66 1410.36,-264.2"/>
<text text-anchor="middle" x="1388.5" y="-283.8" font-family="Times,serif" font-size="14.00">0</text>
</g>
<!-- leaf_7f217daa_aec5_4d86_a0c7_a0443d2863d3 -->
<g id="node29" class="node">
<title>leaf_7f217daa_aec5_4d86_a0c7_a0443d2863d3</title>
<polygon fill="none" stroke="black" points="1345,-101.5 1345,-170.5 1488,-170.5 1488,-101.5 1345,-101.5"/>
<text text-anchor="middle" x="1387" y="-155.3" font-family="Times,serif" font-size="14.00">class</text>
<polyline fill="none" stroke="black" points="1429,-147.5 1429,-170.5 "/>
<text text-anchor="middle" x="1458.5" y="-155.3" font-family="Times,serif" font-size="14.00">0</text>
<polyline fill="none" stroke="black" points="1345,-147.5 1488,-147.5 "/>
<text text-anchor="middle" x="1387.5" y="-132.3" font-family="Times,serif" font-size="14.00">error</text>
<polyline fill="none" stroke="black" points="1430,-124.5 1430,-147.5 "/>
<text text-anchor="middle" x="1459" y="-132.3" font-family="Times,serif" font-size="14.00">0</text>
<polyline fill="none" stroke="black" points="1345,-124.5 1488,-124.5 "/>
<text text-anchor="middle" x="1376" y="-109.3" font-family="Times,serif" font-size="14.00">values</text>
<polyline fill="none" stroke="black" points="1407,-101.5 1407,-124.5 "/>
<text text-anchor="middle" x="1447.5" y="-109.3" font-family="Times,serif" font-size="14.00">[4.0, 2.0]</text>
</g>
<!-- node_f6f39c9c_e20a_4ef7_8ba2_3263aa216f67&#45;&gt;leaf_7f217daa_aec5_4d86_a0c7_a0443d2863d3 -->
<g id="edge28" class="edge">
<title>node_f6f39c9c_e20a_4ef7_8ba2_3263aa216f67&#45;&gt;leaf_7f217daa_aec5_4d86_a0c7_a0443d2863d3</title>
<path fill="none" stroke="black" d="M1434.67,-218.76C1432.33,-208.25 1429.24,-194.31 1426.26,-180.92"/>
<polygon fill="black" stroke="black" points="1429.61,-179.86 1424.02,-170.85 1422.78,-181.37 1429.61,-179.86"/>
<text text-anchor="middle" x="1434.5" y="-182.8" font-family="Times,serif" font-size="14.00">1</text>
</g>
<!-- leaf_687423cf_daaa_4d0f_bbb6_eb839b8c2b59 -->
<g id="node30" class="node">
<title>leaf_687423cf_daaa_4d0f_bbb6_eb839b8c2b59</title>
<polygon fill="none" stroke="black" points="1506.5,-101.5 1506.5,-170.5 1658.5,-170.5 1658.5,-101.5 1506.5,-101.5"/>
<text text-anchor="middle" x="1551" y="-155.3" font-family="Times,serif" font-size="14.00">class</text>
<polyline fill="none" stroke="black" points="1595.5,-147.5 1595.5,-170.5 "/>
<text text-anchor="middle" x="1627" y="-155.3" font-family="Times,serif" font-size="14.00">0</text>
<polyline fill="none" stroke="black" points="1506.5,-147.5 1658.5,-147.5 "/>
<text text-anchor="middle" x="1551" y="-132.3" font-family="Times,serif" font-size="14.00">error</text>
<polyline fill="none" stroke="black" points="1595.5,-124.5 1595.5,-147.5 "/>
<text text-anchor="middle" x="1627" y="-132.3" font-family="Times,serif" font-size="14.00">0</text>
<polyline fill="none" stroke="black" points="1506.5,-124.5 1658.5,-124.5 "/>
<text text-anchor="middle" x="1537.5" y="-109.3" font-family="Times,serif" font-size="14.00">values</text>
<polyline fill="none" stroke="black" points="1568.5,-101.5 1568.5,-124.5 "/>
<text text-anchor="middle" x="1613.5" y="-109.3" font-family="Times,serif" font-size="14.00">[10.0, 0.0]</text>
</g>
<!-- node_f6f39c9c_e20a_4ef7_8ba2_3263aa216f67&#45;&gt;leaf_687423cf_daaa_4d0f_bbb6_eb839b8c2b59 -->
<g id="edge29" class="edge">
<title>node_f6f39c9c_e20a_4ef7_8ba2_3263aa216f67&#45;&gt;leaf_687423cf_daaa_4d0f_bbb6_eb839b8c2b59</title>
<path fill="none" stroke="black" d="M1463.25,-218.98C1480.29,-207.27 1503.65,-191.21 1525.18,-176.41"/>
<polygon fill="black" stroke="black" points="1527.38,-179.14 1533.64,-170.59 1523.41,-173.38 1527.38,-179.14"/>
<text text-anchor="middle" x="1524.5" y="-182.8" font-family="Times,serif" font-size="14.00">0</text>
</g>
</g>
</svg>
